<svg id="图层_1" data-name="图层 1" xmlns="http://www.w3.org/2000/svg" viewBox="0 0 999.12 815.16"><defs><style>.cls-1{fill:#231614;}.cls-1,.cls-2{fill-rule:evenodd;}.cls-2{fill:#fff;}</style></defs><title>logo-lg</title><path class="cls-1" d="M642.92,39c4.37-.34,10.28-1,14.4.24,16,4.77,30.15,20.3,32.4,38.64,3.53,0,7.39-.54,10.56.48,13.87,4.44,22.2,21.34,27.6,34.56a66.29,66.29,0,0,1,2.16,7.44l.24,2.64c.85,2.41,4.69,6.66,6.24,8.88,3.38,4.83,6.5,10,9.6,14.88,10,15.87,19.78,33.07,25.68,52.8,1,3.44.61,7.47,1.44,11.28v4.56c.69,3.21-.27,7,.48,10.56,1.85,8.66-1.35,22.53-4.56,27.12-3.84,5.51-9.64,7-16.8,9.36-11.14,3.65-26.29,7.28-40.08,3.12a133.31,133.31,0,0,1-14.88-5.28c-2.49-1.09-5.08-3.36-7.92-3.84-3.9,3.11-17.19,1.44-22.32.24-6.07-1.42-20.21-2.48-27.12-1-3,.66-6.22-.1-8.88.48H627.8c-4.29,1-9,.4-13.44,1.44-3.78.89-7.85.91-11.76,1.92-5.18,1.34-10.77,2.5-15.6,4.08-1.93.64-3.68.65-5.52,1.44-7.74,3.33-16.12,5.87-23,10.08-19.65,11.95-33.82,25.55-45.84,45.12a102.15,102.15,0,0,0-7.44,14.64l-.48,5c-.4.73-1.24.7-1.92,1.2l-1.44,3.36c-3.11,9.48-3.81,19.94-6.24,30-1,4-.79,8.16-1.68,12l-2.16,22.32-.24,7.92c-.82,3.8.4,8.67-.48,12.72-.93,4.32-.24,10.34-.24,15.12,0,3.58-.45,8.13.24,11.28l.24,13.44c.6,2.7-.17,5.93.48,8.88.46,2.08,0,4.61.48,7,1.5,6.74.67,14.55,2.16,21.12l.24,4.32c1,4.29.65,8.95,1.68,13.44,1.5,6.48,1.48,13.36,3.12,19.92l2.16,7.92c1.56,6.76-4.05,10.24-8.64,11.28-3.43.78-6.67-1-8.4-2.16-3.36-2.21-4.72-5-5.76-9.6v-4.08c0-3.13.18-7.81-.48-10.8-.59-2.7.29-6.23-.24-8.64-.59-2.7.29-6.23-.24-8.64v-8.4c-.51-2.33.34-5.77-.24-8.4-1-4.67-.26-11.84-.72-16.8-.2-2.27.18-5.05-.24-7v-5c-1.56-7.16.16-15.61-1.44-22.8v-5.76c-.45-2.1.28-5.28-.24-7.68-.85-4-.24-9.51-.24-13.92,0-4.1-.56-9.3.24-13,.48-2.17-.17-5.09.24-7l.72-16.32c.55-2.49.12-5.43.72-8.16,1.36-6.1,1.06-13,2.4-19,.68-3,.1-6.28.72-9.12.92-4.14-.31-16-1.44-18.48-.59-1.3-5.81-5.43-7.2-6.48-2.1-1.59-3.87-3.93-6-5.52-3.51-2.63-6.93-5.13-10.56-7.68-8.94-6.28-18.55-12.9-29-17.52-3.79-1.67-7.37-2.86-11.28-4.56a53,53,0,0,1-8.88-5c-.8-.57-1.52-1.69-2.4-2.16-6.82-3.66-15-4.91-23.52-7-3.25-.78-6.35,0-9.84-.72a40.57,40.57,0,0,0-13.92.24l-4.56.24c-7.64,1.76-14.93,2.51-21.84,4.8s-14,5.08-21.36,7.44c-4.07,1.32-8.48,1.63-12.72,2.64l-4.08.24a50,50,0,0,1-18.48-.48c-11.34-3-19.45-7.58-26.16-15.12-2.12-2.39-5.62-4.63-7-7.68-.82-1.9.32-3.35,0-4.8-.15-.7-.95-2.11-1.2-2.88-.71-2.23-.91-4.74-1.44-7-.88-3.76-1.11-12.85-.24-16.8l.24-10.56c1.26-5.61,1.16-11.31,3.12-16.08A54.37,54.37,0,0,1,246,198.6c.82-1.1,2.1-1.95,2.88-3.12-2.83-1.87-4.36-5.83-5.28-9.6-.26-1.1-.12-5.6-.48-6.24L239,177.72a16.55,16.55,0,0,1-5-6.72,23.81,23.81,0,0,1-1-12.24c2-9,4-18.55,10.32-23.28,4.2-3.15,9.28-4.7,12-9.36,1.88-3.21,1.27-8,2.4-12,2.65-9.46,8.17-18.09,20.4-18,.17-14.6,8-29,22.8-29,1.82-3.14,6.4-7.16,12-5.52,3.06.89,4.52,2.8,8.64,2.88l2.4-1.68c1.16-1.47,1.79-3.24,2.88-4.8a30.39,30.39,0,0,1,6.72-6.48,56.69,56.69,0,0,1,7-3.84l2.64-1V41.16l1-5.52a24.27,24.27,0,0,1,3.6-7c1.46-1.93,4.6-3.59,7.2-4.32l3.36-.24a41.11,41.11,0,0,0,4.8-2.64c4.89-3,9.72-5.78,14.16-9.12,5.68-4.27,8.55-9.86,16.8-12,4.62-1.19,9,.88,12.24,1.92,2.55.83,5.75.4,8.4,1.2,3.52,1.06,6.68,2.73,10.08,3.84,7.79,2.54,19.63.13,27.12,2.88,6.94,2.54,11.76,7.78,15.84,13.2,1.49,2,3.79,3.55,5.28,5.52,3.33,4.41,7,8.8,9.36,14.16a43.53,43.53,0,0,1,2.16,7.68v4.08c0,3.51-.21,7.61.48,10.8.43,2-.11,4.6.24,6.24.41,1.87-.1,4.43.24,6,.88,4-.35,8.9.48,12.72l.24,14.4c.32.79,1.27,2,1.68,2.88s.31,2.11,1.2,2.64v-3.84c1.09-1.79.17-6.94.72-9.36s1.35-5.32,1.92-7.68V57.24c0-4.7-.94-14.94,1-17.76,1-1.48,3.3-2.35,4.8-3.36l7.68-6.24a74.79,74.79,0,0,0,7.92-8.4c1.58-2.13,3.18-4.89,5.28-6.48a65.3,65.3,0,0,1,15.12-9.12C536.23,4.74,544.7,2,549.08,3c5.29,1.16,9.7,1.5,13.92,3.36,4.65,2,12.38,7.63,19.2,6.24H587c7.63-1.57,21.2,2.78,25.68,5.52,3.17,1.93,5.5,4.78,9.12,6.24l5,1.2C633.81,27.82,642.79,30.06,642.92,39Z"/><path class="cls-2" d="M396.2,10.2c-1.44,1-3.9.92-4.32,2.88,2,2.73,3.13,9,4.56,12.48,3.46,8.42,6.07,17.3,9.6,25.92,1.41,3.44,4.82,9.43,4.08,13.68-1.38.93-2.25,1-4.08.48-7-15.86-11.6-33.17-18.48-49.2h-.24v.24c-1.09.68-3.08,2.14-3.36,3.6,1.91,2.6,2.08,6.72,3.36,9.84,3.27,8,5.9,16.65,8.88,24.72.93,2.49,4.53,10.28.72,11.28-3.58.94-4.58-6.82-5.52-9.12-3.25-8-5.88-16.64-8.88-24.72-.66-1.8-2.12-8.45-3.6-8.88-1.09,1.39-3.09,1.86-4.32,3.12,1.92,2.25,3.48,8.66,4.8,11.76,2.78,6.52,5.32,13.25,8.16,19.92,1.3,3,3.54,6.06,3.6,10.08-.57.61-.52,1.1-1.44,1.44-.67.46-1.92.17-2.64,0-2.52-4.28-3.91-9.35-6-14.16-3.77-8.71-7.26-17.81-11-26.64-2.69,1.49-5.37,3.67-8.16,4.8-2,.81-4.22.22-6,1.2,6.14,10.33,11.5,21.44,17.76,31.68.92,1.51,1.25,3.06,2.16,4.56,1.37,2.25,3.81,6.56-1.68,6.48a6,6,0,0,0-1.2-1v.24c2.2,1.63,1.38,4.43.72,6.72h.48c1.66,1,6.35,1,8.4,1.92,1.89.8,2.87,2.7,4.8,3.36v-.48c1.18-1.73.77-5.12,1.44-7.2,1.2-3.68,3.42-7.51,6.24-9.6,2.14-1.58,7.78-4.41,12.24-3.36,2.83.66,7.19,2.28,11,1.44,5.85-1.27,7.52-4.35,12.48-5.76,9.55-2.71,16.12,5.45,20.88,8.64V69c1.15-1.88-.14-10,.48-13,.38-1.72-.19-4.46.24-6.48,1.73-8-.28-18.8,1.68-26.4-2.2-1.42-4-3-7-3.84s-6.9-.72-10.56-.72H432.2c-4-.87-8-1.33-11.52-2.16v2.4c.88,1.41.17,5.84.48,7.92.67,4.44,1.37,11.2.48,15.12a3.75,3.75,0,0,1-3.84.72v.24c1.06,1.54,1.05,3.84,1.68,5.76,1.28,3.87,4.88,12.17,4.08,16.56a4.48,4.48,0,0,1-2.88,1c-.74-.61-1.31-.63-1.68-1.68-1.59-2.21-2.35-8.27-3.36-11.28-3-9.06-5.62-18.77-8.64-27.84-1.16-3.51-2-7-3.12-10.32-.4-1.22-.21-2.75-1.2-3.36C401.26,10.52,398.65,10.19,396.2,10.2Z"/><path class="cls-2" d="M408.92,12.84c1.2,6.05,3.63,12.28,5.52,18,.75,2.26.78,5.49,2.16,7.2l-1.2-23.52A18,18,0,0,0,408.92,12.84Z"/><path class="cls-1" d="M551.24,13.32c0,.93-.13,2.33.24,2.88A6.36,6.36,0,0,0,551.24,13.32Z"/><path class="cls-2" d="M542.12,56.52c0-14.23-.23-28.86-.24-42.72l-2.4.48v42h-.24v.24Z"/><path class="cls-2" d="M591.08,22.44c-5.2.08-11.39,1-16.08-.24-4.47-1.2-8.37-3.41-12.48-4.56V33.48c-.57.61-.52,1.1-1.44,1.44a2.53,2.53,0,0,1-1.68.48c-.64-.54-1.2-.72-1.68-1.44-.77-1-.48-3.52-.48-5.28,0-3.84.8-10.74-.24-13.92h-.24V46.92c-.61.75-.63,1.32-1.68,1.68-.78.55-1.78.06-2.4-.24v2.4c1.39,2-.53,4.64-1.2,5.52h1.92c1.67-1.06,6.27,0,8.64-.48,4.63-.95,12.85,0,16.56,1.2,1.47.48,2.9,1.45,4.32,1.92Z"/><path class="cls-2" d="M528.44,42.84a6.44,6.44,0,0,1-2.88-.24c-2-3.4-1-13.92-1-19.2h-.24v.24c-.73,1.19-.27,10.69-.72,12.72a4.48,4.48,0,0,1-2.88,1,1.68,1.68,0,0,0-1-.48c-.95-1.63-1-3.89-1-6.72h-.24v.24C515,33.67,512,37.76,508,40.68c-1.71,1.27-3.35,2.61-5,3.84-.26.19-1,.24-1.2.48V68.52H502c5.45-8.06,18.83-11.65,32.4-11.76v-.24c-.85-1.38-.24-8.78-.24-11v-29h-.48V45a1.82,1.82,0,0,0-.48,1,4.48,4.48,0,0,1-2.88,1C529,45.8,528.39,45.49,528.44,42.84Z"/><path class="cls-2" d="M596.36,23.16c-.46,4.79-2.09,10-3.36,14.4-1.35,4.73-1.54,9.19-2.88,13.92-.92,3.29-2.9,8.35-2.4,11.76a3.91,3.91,0,0,0,1,.48l13-39.36A39.39,39.39,0,0,0,596.36,23.16Z"/><path class="cls-2" d="M606.44,26.52,598.76,50H599v-.48c1-1.26,1-3,1.68-4.56,1.69-4.1,3.24-8.63,5-12.72.46-1,2.07-4.67,1.68-5.28A1.68,1.68,0,0,0,606.44,26.52Z"/><path class="cls-2" d="M458.6,28.2l-1.44,37c0,2.88.29,7-.48,9.6a14.31,14.31,0,0,0,0,3.12,4.55,4.55,0,0,0,1,.72,56.37,56.37,0,0,1,1.68-12.24c1.24-5.31,1-10.81,2.16-15.84.84-3.59.66-7.25,1.44-10.56l.24-2.4c.5-1,1.88-1,2.4-1.92C462.75,33.76,461.42,30.07,458.6,28.2Z"/><path class="cls-2" d="M612,30.36c-.91,4.42-3.59,9.59-5.28,13.68-3.06,7.44-5.07,14.87-8.16,22.32C597,70,594.63,74.2,594,78.36l.72.24c2.15,1.33,5.81.33,8.64,1,5.09,1.14,9.52,1.55,13.68,3.36a55.34,55.34,0,0,1,10.56,6.48c1.13.84,2,2.3,3.12,3.12s2.15,1.17,2.88,2.16c4.42,5.95,1.29,12.2,12,12,1.71-2.9,4.51-5.05,6.48-7.68,3.49-4.65,7-9.33,11.52-13a13,13,0,0,1,2.64,1.2c2-1.28,3.66-3.27,5.76-4.56s5.53-1.54,7.68-3.12c.2-.24.09-.07.24-.48-.69-1.08-.53-2.76-1-4.08a74.16,74.16,0,0,0-2.64-7c-3.38-7.69-11.81-16-20.16-18.72-4.61-1.52-12.85-1.28-16.32,1.2-1.32.95-2.85,5.14-3.84,6.72-3.28,5.3-7.16,10.23-10.8,15.12-1.23,1.66-2.58,3.94-4.32,5-1.56,1-3.28.47-5,.24-.6-.76-1.71-1.28-2.16-2.16-2.29-4.49,3.77-8.84,5.52-11.28,3.41-4.72,6.23-9.57,9.36-14.64,1.82-2.93,4-5.68,4.56-9.84-3.31-3.7-7.5-3.55-12.72-5.28A55.51,55.51,0,0,1,612,30.36Z"/><path class="cls-1" d="M432.2,32.28a7,7,0,0,1,2.4.48c1.73,3,1.48,17,.48,20.88a4.48,4.48,0,0,1-2.88,1c-.65-.63-1.6-1-1.92-1.92V47.16c0-4.49-.47-10.22.48-13.92A6.69,6.69,0,0,0,432.2,32.28Z"/><path class="cls-2" d="M463.4,82.44a61.65,61.65,0,0,1,1.92-11c1.2-4.83,1.27-9.81,2.4-14.4.76-3.07.13-7.36,2.4-8.88a2.83,2.83,0,0,1,1.92-.48l1.68,1.2a35.05,35.05,0,0,0-2.64-5.76c-.78-1.26-2.1-2.34-2.64-3.84h-.24a47.47,47.47,0,0,1-1.2,7.92c-.83,3.59-.67,7.26-1.44,10.56l-.72,7.2c-1.27,5.46-1.42,11.83-2.64,17.28h.48C462.94,82.38,462.91,82.35,463.4,82.44Z"/><path class="cls-2" d="M353.24,41.16v6.72c2.47,1.7,3.67,5.36,5.28,7.92,2.79,4.42,6.23,8.64,9.12,13,1.47,2.18,2.75,5.38,4.8,7a78.6,78.6,0,0,0-5-8.88c-2.88-4.72-5.1-9.78-7.92-14.4C357.84,49.75,355.36,42.84,353.24,41.16Z"/><path class="cls-1" d="M442,43.8a6.57,6.57,0,0,1,2.16.48,8.39,8.39,0,0,1,1,1.44l-.24,2.64c-.63,2.34-.82,8.4-2.88,9.36-1.48,1.41-3.06-.18-3.84-1-.1-3,1.31-11.82,3.12-12.48C441.51,44.12,441.86,44,442,43.8Z"/><path class="cls-2" d="M474,50c0,4.82-1.33,10.1-2.4,14.4l-1,7.44L468,86.28c.73.24.72.47,1.44.72v-.24c.78-1.26.33-3.16.72-4.8,1-4.26,1-8.94,2.16-13.44l.72-2.4c.6-.91,1.58-.63,1.92-1.92C473.47,61.8,475.58,52.45,474,50Z"/><path class="cls-2" d="M547.4,56.52a5.06,5.06,0,0,0,2.4-.24c-3.29-.64-1-3.58-2.4-6Z"/><path class="cls-1" d="M598.52,50.28v.48h.24C598.61,50.34,598.72,50.53,598.52,50.28Z"/><path class="cls-1" d="M598.28,51v.48h.24C598.37,51.06,598.48,51.25,598.28,51Z"/><path class="cls-2" d="M345.8,56.28c-.69.63-1.76.74-2.64,1.2a39.52,39.52,0,0,0-5,3.12c-1.81,1.35-2.84,3.31-4.08,5.28A17.29,17.29,0,0,1,323.48,74a13.26,13.26,0,0,1-6.24.24A33.32,33.32,0,0,1,312,72.12v.24c2.57,1.89,4.27,5.91,6,8.64,3.91,6.15,8.2,12.38,12.24,18.48a55.4,55.4,0,0,1,3.36,5.52c.45.88.15,2.12,1,2.64,1.59-1.52,5.76,0,5.76,0,.62-.89.55-2.26,1-3.36a36.91,36.91,0,0,1,2.64-5.76A32.6,32.6,0,0,1,360,84.84l5.52-1.2V83.4h-.24c-.95-2.89-3.84-5.54-5.52-7.92-2.72-3.88-5-7.87-7.68-11.76-1.69-2.42-3.86-4.75-5.28-7.44Z"/><path class="cls-2" d="M564.2,65.64c-2,5.93-2.87,12.74-4.56,18.72-.63,2.26-.31,5.71-2.4,6.48-.76.6-1.27.34-2.4.24l-1.2-1.44c-.18-4.11,1.53-9.08,2.64-13,1.06-3.67,1.14-7.37,2.4-10.8h-2.16c-1.54.93-7.48.27-9.84.72a53.48,53.48,0,0,1-6.48,0c-6,0-12.26-.18-17.28,1.2a33.47,33.47,0,0,0-11.28,5c-11.22,8.35-13.3,33-13.44,52.8h.24c.56-.81,1.25-1,2.64-1,.59.61,1.12.76,1.44,1.68.82,1,.52,4,.48,5.76h.24c.47-.67,1.84-1.07,2.16-1.68V93.72a1.65,1.65,0,0,0,.48-1A5.45,5.45,0,0,1,509,92c.53.55.91.6,1.2,1.44,1.21,1.61.48,6.82.48,9.36v25.44h.24V128c1.63-2.66-1.15-14.4.48-17a2.66,2.66,0,0,1,4.8-.24c.91,2.08.34,12.93.24,16.08h.48c1.06-.68,2.6-.15,4.08-.48a34.85,34.85,0,0,1,17.28,1.2c1.12.43,5,2.16,5,2.16,1.26-1.72,1.37-4.34,2.16-6.48,1.56-4.19,3-8.77,4.56-13,.82-2.19.92-5.71,3.12-6.48,1.76-1.2,4.05.94,3.6,2.88l-2.4,7h.24c.71-.66,1.89-.47,2.88-.24l.72,1c.83,1,.39,3.16,0,4.56L556,128.76h.48c.6.38,1.36.21,2.16.48a22.15,22.15,0,0,1,4.56,2.16c2.45,1.55,4.2,4.34,7,5.52,2.24,1,5.55.17,8.16,1,3.31,1,6.12,3.08,9.12,4.08v-.24c2.61-2.91,4.14-7.82,6.24-11.28,4.47-7.33,8.48-15.23,13-22.56,1.9-3.1,3.58-10.12,8.16-10.08.25.19.07.09.48.24a6.25,6.25,0,0,0,1,1.2c.09,3.8-3,7.33-4.56,9.84s-2.48,5.31-4.08,7.92c-2.54,4.16-5.19,8.55-7.44,13h.24v-.24c1-.95,1.93-2.13,2.88-3.12,4,0,3.75,3.25,2.16,5.52-2.46,3.52-5.14,7-7.68,10.56-1.18,1.68-3.35,3.24-3.84,5.52,1.68,1.2,1.95,3.31,3.12,5s9.29,7.77,11.76,8.16c.67-1.59,7.17-7.82,9.36-7.92a4.78,4.78,0,0,0,1,.48v-.24c-1.75-2.53,2.7-8.12,3.84-9.84,6-9,12.62-17.82,18.24-27.12a15.38,15.38,0,0,1-7.2-2.4c-.86-.57-1.31-1.51-2.4-1.92-.8,3.41-3.56,6.8-5.28,9.6-3.46,5.67-6.2,11.72-9.6,17.28-1.24,2-3.49,8.4-5.52,9.12-.49.45-.92.48-1.92.48-.55-.47-1-.58-1.44-1.2-1.42-1.79,2.91-8.35,3.84-10.08,3.31-6.17,6.93-12.52,10.56-18.48,1.5-2.44,3.34-8.19,5.52-9.6.41-.26,1.08-.23,1.44-.48-2.1-2-1.83-5.68-3.36-7.92-.52-.76-3-2.24-3.84-2.88-2.68-2-5.35-4.56-8.64-6-3-1.32-6.28-1.86-9.84-2.64-4.08-.9-8.16,0-11.76-1.2a17.56,17.56,0,0,1-4.56-2.4c-.77-.58-1.09-1.59-1.92-2.16-.38,3.48-2.6,7.09-3.84,10.08-3.05,7.37-5.43,14.89-8.4,22.08-1,2.32-2.2,8.62-4.32,9.36-.46.43-.75.46-1.68.48-.68-.58-1.28-1.08-1.92-1.68-.09-4,2.54-8.44,3.84-11.52,3-7.09,5.29-14.43,8.16-21.36,1-2.5,2.57-9.78,4.8-10.56.66-.48,1.45-.24,1.92-.48-1.58-2.13-1.32-6.12-2.4-8.64C579.14,66.17,572.12,65.56,564.2,65.64Z"/><path class="cls-2" d="M426.68,77.88a2.2,2.2,0,0,0-1.92,1c1.26,1.8,1,4.88,1.68,7.2,1.2,4.29,2.58,9.24,3.36,13.68.36,2-1.42,3-3.12,3.12a2.85,2.85,0,0,0-1.2-.48c-1.8-3.28-2-7.68-3.12-11.76a86.38,86.38,0,0,1-2.64-11c-2.66,0-4.93.61-7.68,0-4.46-1-9.76-2.16-12.24,1.44-4.1,6-.61,14.7-8.64,18-5.76,2.37-9.49-2.21-12.48-4.08-1.82-1.14-6.73-1.41-9.6-1.44V94c1.25,1.41,1.74,3.54,2.64,5.28,2.37,4.55,4.54,9.27,7,13.92,7,13.51,14.05,27.25,20.64,41,1.49-.4,2.9-1.28,4.32-1.68,6.35-1.8,10,2.63,13.2,4.8v-1.44c-1.47-2.65,2.59-9.16,3.6-10.56,7.27-10,21.41-10.16,37.92-9.36-.11-1.3-1.44-7.25-2.16-7.68-.38,1.16-1.32,1.46-2.88,1.44-3.43-3.54-4.19-9.44-6.24-14.4C443.16,105.81,440,95.55,436,86c-1.16-2.84-2.6-9.89-4.32-11.76v.24l-1,.48c4.22,9,5.89,19.74,9.12,29.52,1.22,3.68,3.68,8.55,2.88,12.48a4.63,4.63,0,0,1-3.36,1c-3.58-5.73-4.63-13.9-7-20.88-1.28-3.85-2.24-7.93-3.6-12C428.11,82.87,426.93,80.48,426.68,77.88Z"/><path class="cls-2" d="M437.72,74.76c.8,3.9,2.86,8,4.32,11.52,2.6,6.31,4.45,12.83,7,19,1.63,4,2.78,8,4.32,11.76.58,1.41.56,3,1.44,4.08v-.72c-1.49-2.26-1.31-6.11-2.16-8.88l-5.76-22.8L444.92,80C444.19,78.75,439.39,75.19,437.72,74.76Z"/><path class="cls-2" d="M299.24,77.16c-1.3.86-3.11.81-4.32,1.68-5.17,3.73-6.86,13.36-6.72,21.6,2.44,1.23,4.4,3.88,6,6a38.75,38.75,0,0,0,8.88,7.68c3,1.76,6.86-.6,7.68,3.84,2.07,2.93-1.77,5.25-3.12,6.48-4.69.42-7.22-.64-10.32-2.16v.24a6.54,6.54,0,0,1,3.36,5.28c-.57.61-.52,1.1-1.44,1.44-.76.6-1.27.34-2.4.24-3.57-4.7-8.4-8.44-12-13.2l-2.64-2.4c-1.72-2.27-4.64-6.15-7-7.68v.48c2.31,1.59,4.31,4.72,6,7l1.68,1.44c3,4,6.86,7.34,9.84,11.28,1.36,1.8,5,7,7,7.68a35.45,35.45,0,0,1,7.68-7.44c7-5.27,13.27-12.46,25.2-12.72v-.24c-.36-.53-.34-1.62-.72-2.16-.84.87-3.32,1.43-4.56.48-2.88-.88-4-4.59-5.52-7-3.86-6.21-8.33-12.34-12.24-18.48-1.3-2-4.67-8.66-7-9.12C302,77,300.28,77.13,299.24,77.16Z"/><path class="cls-2" d="M475.4,82.92l-1.2,8.16,1.68,1.2V89.16C475,87.73,476.29,84.34,475.4,82.92Z"/><path class="cls-2" d="M452.12,87.24c.18,3.89,2.27,10.08,3.36,13.68,2.22,7.28,3.13,14.78,5.28,21.84,1.11,3.61,1.68,7.39,2.64,10.8.35,1.2.11,2.27.72,3.12a4.08,4.08,0,0,0,1.92.72v-.48c-1.55-2.49-1.93-9.17-2.88-12.48-2.28-8-4.05-16.64-6.48-24.48C455.71,96.8,454.53,88.49,452.12,87.24Z"/><path class="cls-2" d="M702.92,178.44l26.4-1.2a46.15,46.15,0,0,1,12.72-.48c.56.82,1.06.83,1.2,2.16.2.4.06.62,0,1.44-.42.3-.76,1-1.2,1.2-1,.52-2.52,0-3.84.24-2.92.63-6.39-.21-9.6.48-2.84.61-6.23-.19-9.36.48l-15.6,1,1.2,10.56a37.67,37.67,0,0,1,8.16,1.2c3.42.81,6.92.7,10.08,1.44l5,.48c5.87,1.4,12.61,1.5,18.48,2.88,3.51.83,11.61,0,12,3.6.34.6,0,1.16-.24,1.92-2.27,1.35-7.09.77-10.32,0-6.41-1.53-13.74-1.59-20.16-3.12l-5-.48c-1.73-.41-10.09-2.1-11.28-1.44a24.45,24.45,0,0,1,6,1.2c3.26.88,6.58,1.1,9.6,1.92l7.2,1.2c6.85,1.85,14.51,2.92,21.36,4.56.93,1.44,1.47,3.21-.24,4.32-.79.63-2.37.57-3.6.24-3-.81-6.34-1-9.6-1.92-7-1.88-14.41-2.38-21.6-4.32-4.49-1.21-9.66-2.64-14.64-2.88v.48c1.21,1.92.42,5.48,1,7.92,2,8.77.13,20.33-3.6,25.92a17.53,17.53,0,0,1-4.8,4.56l-2.64,1v2.4c-.19.28-.18.4-.24,1,2,.51,3.56,1.88,5.28,2.64,3.69,1.62,7.66,3.06,11.52,4.32,12.05,3.92,26.08,1.58,36.24-2.16,4.4-1.61,9.58-2,12-5.52,3.09-4.5,3.12-11.86,3.12-19.44,0-12.64-.82-25.77-4.56-34.8-7.12-17.2-16.22-32.55-25.68-47.52-3.8-6-8.56-11.71-12.24-17.76-1.5-2.48-1.65-8.52-2.88-11.52a92.9,92.9,0,0,0-11.76-20.88,18.44,18.44,0,0,0-2.88-3.6C702,90.57,700,88.67,697.4,88c-6.63-1.85-18.32,2-21.84,4.32-6.12,4.08-3.19,7.8-5,15.36a33.79,33.79,0,0,1-3.12,8.64h.24a87.42,87.42,0,0,1,10.56-14.64,8.37,8.37,0,0,1,2.88.48,7.48,7.48,0,0,1,.72,2.64c-3.75,4.77-6.59,10.15-10.08,15.12-2,2.84-5.32,5.93-6.48,9.36h.24c2.43-4.15,6.3-7.47,9.12-11.28a175.5,175.5,0,0,1,13.2-16.32H690c.4.53.68.49,1,1.2,1.94,2.13-2,5.26-2.88,6.48h.24v-.24c1.73-1.14,3.81-3.94,5.28-5.52h2.16c.4.53.68.49,1,1.2.48.52.5,1.1.48,2.16a89.34,89.34,0,0,0-6.72,8.16c-.91,1.21-2.44,2.15-3.36,3.36-2.66,3.53-5.73,6.55-8.4,10.08-1.53,2-5.93,5.13-6.48,7.68a4.35,4.35,0,0,1,.72,1.2c2.94-1.76,4.78-5,7.44-7a117.69,117.69,0,0,0,11.76-10.56c2.08-2.07,5.42-6.64,9.12-6.72.25.19.07.09.48.24.71,1,1.2,1.21,1.2,3.12a82.86,82.86,0,0,1-9.12,8.64l-2.88,3.12c-2,1.53-4.6,3.41-6,5.52h.24c1-1.41,2.91-2.13,4.32-3.12,2.2-1.55,5.61-5.23,8.16-6S701,126.07,701,128c-3.54,3.55-7.82,6.18-12,9.12-3.32,2.34-6.4,5.53-10.08,7.44.16.42.05.23.24.48a3.91,3.91,0,0,0,.72,1.2c1.54-.78,2.54-2.15,3.84-3.12,3-2.24,5.85-4.48,8.88-6.72,2-1.47,3.2-3.94,6.48-4.08.75.61,1.32.64,1.68,1.68a3.07,3.07,0,0,1,.24,1.68A119.56,119.56,0,0,1,687.8,147c-.62.46-4,2.54-3.84,3.36l2.16,1.68c2.67,2.52,6.91,3.8,9.84,6,1.84,1.38,3.88,6.6,6,6.72,1.92-1.23,5.31-.8,7.68-1.44,4.53-1.21,9.38-1.42,14.16-2.64,2.68-.68,5.67-1.5,8.64-1.2.77,1.11,1.23,1.25,1.2,3.36-2.86,2.58-8.91,2.76-13.2,3.84-1.39.35-2.83,0-3.84.72,2.88,0,5.55-.53,8.16-.24.38.57.71.7,1,1.44.45.64.16,1.71,0,2.4-4.67,2.87-16.75,1.61-23.28,2.88v1.68A7.67,7.67,0,0,1,702.92,178.44Z"/><path class="cls-2" d="M460.28,93c3.06,9,4.49,18.54,7.2,28.08,1.2,4.2,1.86,8.73,3.12,13.2a22.38,22.38,0,0,1,1.2,5.28,17.44,17.44,0,0,1,3.6,1.68V140c-1.29-2.08-1.16-6.48-1.92-9.12-2.37-8.3-4.11-17.19-6.72-25.2C464.76,99.57,465.63,96.09,460.28,93Z"/><path class="cls-2" d="M363.08,94.44a7.59,7.59,0,0,1-2.64,1.2c.25.19.07.09.48.24,3.55,5,5.93,11.11,8.88,16.8,5,9.64,9.86,19.65,14.88,29.28,2.1,4,4,8.09,6,12,.74,1.42,1.24,4.08,2.64,4.8a4.78,4.78,0,0,1,1.68-1.44v-.24h-.24c-.41-1.78-1.62-3.32-2.4-4.8-1.85-3.53-3.48-7.12-5.28-10.56-5.5-10.51-10.4-21.27-15.84-31.68-2-3.85-3.8-7.76-5.76-11.52C364.8,97.21,364.48,95,363.08,94.44Z"/><path class="cls-2" d="M661.4,95.64c-2.15,3.43-5.23,6.33-7.68,9.6-1.07,1.44-2.93,2.48-3.6,4.32a2.24,2.24,0,0,1,.72,1c2.22-2.1,4.15-4.74,6.24-7,2.35,0,2.51.61,3.6,1.68V103.8C661,103.27,661.4,95.64,661.4,95.64Z"/><path class="cls-2" d="M357.08,98.28c-2.34,3-5.08,5.51-6.48,9.6-.65,1.92-.45,3.55-1,5.76-.34,1.49-.56,6.14,0,7.68.37,1,1.79,1.81,2.4,2.64,1.18,1.6,2.34,3.38,3.36,5,3.53,5.75,5.43,12.8,8.64,18.72,1.44,2.64,3.85,6.43,6.24,8.16,1.12.81,2.68.89,3.84,1.68,1.72,1.17,3,4.61,1.44,7-.55.82-1.69,1.24-2.4,1.92-6.28.38-9.66-2.73-12.48-6.48-3.11-4.15-6.42-8.61-8.64-13.68-1.21-2.77-1.82-5.82-3.36-8.4-1-1.64-2.57-3.18-3.6-4.8-3.32-5.23-7.4-11.92-17-8.4a40.54,40.54,0,0,0-7.44,3.84c-3.82,2.43-7.39,6-10.56,9.12l-3.36,3.6v.24h.24c1.45,2.17,4.16,4.19,6.24,5.76l2.16,2.4a54.87,54.87,0,0,0,5.52,4.8c2.64,2,4.56,5.2,7.2,7.2,7.2,5.44,12.73,12.81,19.92,18.24l3.36,3.6c2.94,2.22,5.23,5,8.16,7.2,1.33,1,1.94,3,3.84,3.36,1-1.41,4.15-2.43,4.8-3.6l.24-1.68a31.5,31.5,0,0,1,2.4-5.28c2.79-4.57,6.45-8.3,9.6-12.48,1.55-2,8.1-6.8,8.4-9.12-1-1.17-1.4-2.87-2.16-4.32-2-3.76-3.75-7.66-5.76-11.52-5.67-10.91-11.11-22.22-16.8-33.12-1.93-3.7-3.64-7.44-5.52-11C357.94,100.77,357.81,99.33,357.08,98.28Z"/><path class="cls-2" d="M471.32,101.88a99.94,99.94,0,0,0,3.12,11c2,6,2.86,12.47,4.56,18.48.91,3.22,1.13,6.53,1.92,9.6.37,1.44,0,3.06.72,4.08l-1.2-14.88L480.2,118C478.77,111.61,475.94,104.89,471.32,101.88Z"/><path class="cls-2" d="M659.72,108.12c-1.63,2.56-3.92,4.74-5.76,7.2-.54.72-1.72,1.37-2.16,2.16-.67,1.22-.52,2.5-1.2,3.6-.87,1.41-2.3,2.61-2.88,4.32h1c2.66-1.75,9.62.61,11.76,1.2l4.8-7H665c-.86,1.43-4.15,4.13-6.48,2.4a4.79,4.79,0,0,1-3.12-6C656.05,114.06,660.61,110.44,659.72,108.12Z"/><path class="cls-2" d="M270.68,109.56a9,9,0,0,0-.48,1.44c2.16,1.48,5.79,6,7.44,8.16l2.88,2.64c2.86,3.79,6.5,6.78,9.36,10.56,1.25,1.65,3.41,2.82,4.56,4.56.42.64.3,1.76.72,2.4v-.48c.54-.38.51-.39.48-.72-.92-2.62-5-5.45-6.72-7.68-3.6-4.77-8.2-8.73-11.76-13.44C275.5,114.8,272.93,111,270.68,109.56Z"/><path class="cls-1" d="M687.8,109.56l-.48.72C687.41,110.32,688.46,109.64,687.8,109.56Z"/><path class="cls-1" d="M384,115.08a7.55,7.55,0,0,1,2.64.48c2,3.56,3.6,7.33,5.52,11,1.07,2.05,2.69,3.87,2.88,6.72-1.05,1.34-1,2-3.6,1.92-.24-.19-.06-.08-.48-.24-2.28-3.56-4-7.6-6-11.52-.79-1.53-2.17-3.32-2.64-5C381.75,116.46,383.24,115.86,384,115.08Z"/><path class="cls-2" d="M267.56,116.28c-.05.82-.22,1,0,1.44L277.64,128c1.52,1.52,3.61,2.48,3.84,5.28a3,3,0,0,0-.48,1.2,4.27,4.27,0,0,1-2.64,1,102.18,102.18,0,0,1-7.92-7.2c-1.33-1.33-2.49-3-4.08-4.08v.72c1.45.4,2,1.49,2.88,2.4,1.88,1.88,6.25,4.76,6.48,7.92a3,3,0,0,0-.48,1.2,4.27,4.27,0,0,1-2.64,1c-2.72-2.19-6-4.51-7.92-7.44h-.24v.24c-.89,1-1.21,2.45-2.16,3.36.73,2,3.12,3.2,4.32,4.8,2.7,3.57,5.95,6.51,8.64,10.08,1.7,2.25,4.05,2.64,4.08,6.72-1,.68-1.21,1.31-2.88,1.44a72.85,72.85,0,0,1-11.76-12.48c-1.73-2.3-4.37-4-6-6.48h-.24v.24a4.74,4.74,0,0,0-1.92,1.68c2,1.29,9.26,8.51,9.6,11a3,3,0,0,0-.48,1.2,4.48,4.48,0,0,1-2.88,1c-2.65-2.57-5.31-5.07-7.92-7.68a23,23,0,0,1-3.12-3.12c-5.78,3-6.68,10.13-8.4,17.28-.61,2.57-.87,7.1.48,9.12,1.62,2.41,3.79,1.06,6.48,2.16,1.6.65,2,2,3.12,3.12-.12,5-1.51,14.22,3.6,15.12,2.09-2.55,9.13-6,12.24-7.92,1.34-.81,3.38-1,4.08-2.4a28.81,28.81,0,0,1-4.56-6,2.72,2.72,0,0,1,3.6-3.36c.8.35,1.33,1.34,1.92,1.92-1.38-4.14-7.33-4.74-7.44-10.08.2-.24.09-.07.24-.48a4.44,4.44,0,0,1,2.88-1.2c1.68,1.58,3.75,2.59,5,4.56h.24v-.24c1.12-1.44,1.44-3.49,2.4-5,1.59-2.54,3.72-4.81,5.52-7.2l3.36-3.12c1.75-2.3,4.07-5.13,6.48-6.72v-.24c-3.5-.18-5.56-3.84-7.2-6-2.73-3.61-6.58-6.41-9.36-10.08l-3.12-2.88C272.15,120.73,269.36,116.93,267.56,116.28Z"/><path class="cls-1" d="M552.44,119.16v.48h.24v-.48Z"/><path class="cls-2" d="M552.2,119.88l-3.36,10.56h.24c.3-.28,1.19-.41,1.44-.72l.24-1.92C551.13,126.43,552.79,120.93,552.2,119.88Z"/><path class="cls-2" d="M639.8,200c3.24-.22,9.08-3.35,12-4.56,7.78-3.22,15.51-5.42,23.28-8.64,2.92-1.21,6.2-2.65,9.12-3.84,1.25-.51,2.83-.9,3.84-.24.74.25.7.23,1,1a2.83,2.83,0,0,1,.48,1.92c-3.65,3.59-9.75,4.59-14.88,6.72-7.1,2.95-14.54,5.38-21.84,8.4-3.59,1.49-8.46,4.21-12.48,4.8l-.72,7.44,34.56-1.2c2.88-.62,6.68-.48,9.84-.48,1.18,0,3.08-.23,3.84.24a1.77,1.77,0,0,1,1.2,1,2.83,2.83,0,0,1,.48,1.92c-.46.49-.62,1-1.2,1.44-2.66,2-10.86.1-14.88,1-3.75.81-8.52-.37-12.48.48-1.64.35-4.29-.18-6.24.24-4.21.91-11.43.71-16.08.72-.23,1.88-2.18,5.28-1.68,6.48,1.89,1.15,10.05-.15,13,.48,1.73.37,4.46-.2,6.48.24,6,1.31,13.4-.34,19.44,1,3.17.68,6.48-.23,8.88.72,1.32,2.09.81,3-.72,4.56-17.27.07-33.77-1.61-50.88-1.68-1.67,2.71-5.33,4.71-8.4,6-1.13.48-2.46.5-3.36,1.2l23.52-2.88,17.52-1.2H670c5.73,0,11.44-.26,16.32,1,2.11.53,4,1.39,6.48,1.44.63-.6,1.67-1,2.16-1.68,4.49-6.61,2.36-23.82.48-32.16l-.24-4.08c-1.44-6.31-1.22-13.61-2.64-19.92-.67-3,.07-6.14-1-8.88-1.69-4.52-6.74-4.81-10.32-7.44-1-.7-1.7-1.93-2.64-2.64a58,58,0,0,1-11.52-12c-3.47-4.82-5.77-9.67-12.24-11.52-3.14-.9-6.32.32-8.4,1.2-6.4,2.7-11.31,7.91-15.12,13.2-2.9,4-4.65,9.9-11.28,6,0,2.73-4.89,7.22-6.72,8.4v.24h.24c1,1,2.39,1.35,3.6,2.16s2.08,1.89,3.12,2.64c.57.41,2.34,1.72,2.64,1.44,3.39-1.58,6.36-5.14,10.56-5.52,1.31,1.05,2,1.05,1.92,3.6-.19.25-.08.07-.24.48a92.79,92.79,0,0,1-7.92,5v.24h.24c.58.76,5.85,6,6.48,6.24a69.51,69.51,0,0,1,9.36-7.68c.94-.39,1.36-.06,2.4,0,.56.82,1.06.83,1.2,2.16a1.47,1.47,0,0,1-.24,1.44c-1.14,3-9.17,6.1-10.32,9.12,1.15,1.49,1.42,3.92,2.16,5.76.42-.15.24-.05.48-.24,5.28-1.62,10.45-8.69,16.32-8.64.68,1,1.32,1.21,1.44,2.88a3,3,0,0,0-.48,1.2c-4.11,2.47-8.23,5.3-12.24,7.92-1.27.83-4.12,1.54-4.56,3.12A5.07,5.07,0,0,1,639.8,200Z"/><path class="cls-2" d="M499.64,212l4.32.24a111.83,111.83,0,0,1,2.64-15.12c1.53-6.26,1.62-12.7,3.12-18.72l1-7.2c2.12-8.46,2.63-18.12,4.8-26.4a4.38,4.38,0,0,1,2.64-1c1,.78,1.77.71,1.92,2.4.36.74-.3,2.83-.48,3.84-.66,3.85-1,7.71-1.92,11.28l-7.2,44.16h.24v-.48c1.34-1.78,1.54-5.74,3.6-6.72,1.49-1.41,3.07.18,3.84,1,.1,5.08-3.59,9.12-4.8,13.44h1.44a5.09,5.09,0,0,0,2.4.24c.31-2.93,2.74-8.13,3.84-10.8l1.2-4.32c2.09-5,3.84-10.71,5.76-15.84,1-2.7,1.49-8.8,4.8-9.12.4-.2.62-.06,1.44,0,.56.82,1.06.83,1.2,2.16.66,1.22-1,3.94-1.44,5l-5,15.12h.24v-.48c2.73-3.07,3.34-12.33,8.64-12.24v-.24c-3.22-2.19-.83-9.71,0-13.2.45-1.86.15-3.68.72-5.28H538c-1.5,1.13-3.32-.78-3.6-.48-.57.91-.92,4.66-1.2,5.76a4.48,4.48,0,0,1-2.88,1c-.37-.35-1.15-.55-1.44-1-.8-1.15-.18-5.9.24-7.68,1.7-7.11,1.76-15.43,3.6-22.32a4.5,4.5,0,0,1,2.88-1c.46.46,1,.7,1.44.48s.17.1.48-.48a48.59,48.59,0,0,0-5-1.92,24.35,24.35,0,0,0-8.64,0c-3.48.76-6.38.23-9.36,1.2-6.08,2-9.49,6.69-13,11.28-2,2.63-4.16,3.49-5.52,7.2s-1,8.3-1.92,12.72c-1.09,5.11,1.64,12.24,2.64,15.6.84,2.82.51,5.36,1.2,8.4C499.27,198.32,499.49,205.66,499.64,212Z"/><path class="cls-1" d="M528.44,136.2a8.78,8.78,0,0,1,2.4.48c1.43,2.41.57,6.84,0,10.32-1.25,7.72-1.43,16.64-3.36,24a4.48,4.48,0,0,1-2.88,1,4.31,4.31,0,0,0-1-.48c-1.57-2.63-.38-6.75,0-10.32.81-7.58,1.51-17,3.36-24A6.69,6.69,0,0,0,528.44,136.2Z"/><path class="cls-2" d="M554.36,138.84a1.57,1.57,0,0,0-.48,1.2c-1,1.49-.69,3.83-1.2,5.76-1,3.73-1.58,8-2.64,11.76-.38,1.34-1.23,4.55-.72,5.52.17-3.83,2.28-9.88,3.36-13.44.6-2,.33-4.56,2.16-5.28a2.83,2.83,0,0,1,1.92-.48c.38.34,1.16.55,1.44,1,1.16,1.67-.14,5.55-.72,7.44-1.64,5.38-3,11.21-4.32,16.8h.24v-.48c1.52-1.75,1.91-4.72,2.88-7,2.39-5.5,5.53-11.32,7.44-17C560.49,143,558.86,139,554.36,138.84Z"/><path class="cls-1" d="M303.08,145.32c.26.46,1.63,1.3,1.68,1.68C304.9,146.68,303.33,145.48,303.08,145.32Z"/><path class="cls-2" d="M489.56,212c.06-7.25-1.5-14-1.68-20.88a4.33,4.33,0,0,1-2.16-.24c-2.36-.92-2.58-6.82-3.36-9.6-1.25-4.46-2.19-9.56-3.36-14.16l-.48-4.08a46.79,46.79,0,0,1-1.44-8.64c-4-2.52-7.7-5.52-12.72-7.2-2.26-.76-4.81-.88-7.2-1.44h-2.88a33.63,33.63,0,0,0-11.28,0c-3.44.79-9.73.34-11,2.88.79.87.87,2,1.44,3.12,1.78,3.56,3.37,7.24,5,11,2.91,6.6,6.15,13.15,9.12,19.92,1.73,3.92,4.93,7.47,5,12.72-.52.4-.48.68-1.2,1A2.58,2.58,0,0,1,448,196c-1.73-2-2.94-6.52-4.08-9.12-3.71-8.45-8.29-17-12-25.44-.85-1.94-2.84-8.27-4.32-9.12v.48a3.26,3.26,0,0,0-.72,2.4c.8,3.35,3.27,6.68,4.8,9.6,3.26,6.22,5.89,12.49,9.12,18.72,1,1.84,5.11,8.15,3.84,10.08-.25.78-.42.94-1.2,1.2a4.43,4.43,0,0,1-2.16.24c-2.77-3.88-4.64-8.5-7-13-3-5.74-6-11.64-8.88-17.52-1,1-1.89,2.37-3.12,3.12a12.39,12.39,0,0,1-2.4,1c-8,2.39-8.43-5.85-14.16-6.24-2,1.59-4.45,2.57-6.48,4.08a47.87,47.87,0,0,0-4.56,4.56c-3.68,3.69-7.13,7.3-10.56,11.28a51.15,51.15,0,0,0-4.08,5.52c-.37.57-1.58,1.88-1.2,2.4,1.13.89,2.6,1.15,3.84,1.92,2.29,1.42,4.33,3.41,6.48,5l4.08,4.32c3.58,3.57,7.58,7.43,12,10.08-2.35-4.45-6.88-7.79-9.84-11.76-1.12-1.51-2.59-3.75-.48-5.28a3.2,3.2,0,0,1,2.16-.48,47.88,47.88,0,0,1,7,7.92c2.66,3.55,5.95,6.7,8.64,10.32,1.92,2.58,5.24,4,5.28,8.4-.52.4-.48.68-1.2,1-.49.45-.92.48-1.92.48a16.83,16.83,0,0,1-3.6-3.6h-.24a4.28,4.28,0,0,1-2.64,3.36c-3.26,2.54-8.88-2.22-10.8-3.6-5.65-4.06-9.9-9.32-15.36-13.44-2.69-2-4.6-5.33-9.12-5.52-3.27,2.6-8.38,5.36-10.32,9.12-1.45,2.81-.83,6.28-1.68,9.84-.26,1.11-1.54,4.47-1.2,5,2.49,2.21,6.57,3.23,9.6,4.8,6.95,3.61,14.18,7.18,21.12,10.8,3.13,1.63,11.22,3.47,6.72,8.16-3.43.2-5.67-2.13-8.4-3.36-7.47-3.38-14.53-7.08-21.6-10.8-2.42-1.28-4.87-2.38-7.2-3.6-.63-.33-2.39-1.18-2.64-1a6.49,6.49,0,0,0-1.2,2.88c2.22.45,4.14,1.82,6,2.64,4.55,2,9.07,3.85,13.44,5.76,2.36,1,5.85,1.57,7.2,3.6,1.35,1.62-.34,3-1.2,3.84-4,.07-6.92-2.32-9.84-3.6-5.51-2.42-11-4.39-16.32-7V237c1.33,1.15.36,2.48,0,3.6s.4,5,.72,6c1.26,3.9,3.74,8.32,6.72,10.56a18.31,18.31,0,0,1,2.4,1.68h31.44a68.31,68.31,0,0,1,11.76-16.32l2.64-2.88c2.28-1.72,4.2-3.88,6.48-5.52,1.14-.81,2.6-1.23,3.12-2.64-1.7-1.13-4-4.08-4.08-6.72.47-.56.58-1,1.2-1.44a3.2,3.2,0,0,1,2.16-.48c.6.53,1.45.81,1.92,1.44.67.88.88,1.9,1.92,2.4v-.24a3.9,3.9,0,0,0,1.2-1.68c-1.79-1.2-3-3.32-4.32-5-1.81-2.41-4.13-4.49-6-7-.84-1.12-2.27-2-3.12-3.12-3.85-5.11-8.39-9.52-12.24-14.64-.77-1-2.1-1.85-2.88-2.88-1.5-2-3.05-3.76-4.56-5.76-.49-.66-1.54-1.15-1.92-1.92-1-2.07.94-4.59,2.64-3.84,2.69.47,7.71,7.64,9.36,9.84,1.29,1.71,3.28,3.1,4.56,4.8,3.79,5,8.21,9.38,12,14.4.85,1.12,2.28,2,3.12,3.12,1.24,1.64,5.83,7.81,7.44,8.4,1.38-2,5.15-2.77,6-5-1.57-1.67-2.34-4-3.6-6-2.23-3.55-7-9.12-7.2-14.16.77-.88,2-3,4.08-1.68,1.37.85,1.56,3.4,2.4,4.8,2.91,4.81,6,9.6,8.88,14.4h.24v-.24c.5-.28.46-.16.72-.72-1.48-1.65-1.92-4-3.12-6-3.25-5.35-5.93-11.13-8.88-16.8-1.42-2.74-4-5.5-4.32-9.12.77-.95.78-1.76,2.4-1.92.4-.2.62-.06,1.44,0,4.58,6.7,8.43,14.77,12.24,22.08,1,1.93,3.43,8.31,5,9.12.93-1.17,2.43-1.19,4.08-1.68,7.43-2.2,13.24.88,18.72,2.4v-.24c-2.11-2.27-3.11-6.58-4.8-9.36-2.73-4.51-4.92-9.37-7.44-14.16-.73-1.39-2.16-3-2.64-4.56-1.1-3.55,2.19-3.74,4.08-3.36,2,3.26,5.19,8,6.24,11.76h.24c-1.51-6.82-4.91-13.31-6.72-19.92-.73-2.69,1.14-3.6,3.36-3.6a1.75,1.75,0,0,0,1,.48c2.48,5.4,4.14,11.86,6.24,17.52.91,2.44,1.1,6,2.64,7.92-.18-5.07-2.38-10.21-1.44-15.36A3.76,3.76,0,0,1,473,177c1.42,2.57,1.09,5.84,1.92,9.36,1.58,6.64,1.58,14.27,3.12,20.88.69,2.95.19,9.58,1.68,11.52v-.24c.68-.73.85-1.81,1.44-2.64C482.71,213.74,486.05,212.17,489.56,212Z"/><path class="cls-2" d="M568.28,146.76c-.45,2.29-1.79,4.32-2.64,6.24-2,4.62-3.81,9.24-5.76,13.68-5.35,12.25-9.8,24.45-15.12,36.72-1.27,2.93-2.48,6-3.84,9.12-.76,1.78-2.06,3.6-2.4,5.76l.72.24c.26.18.23.15.72.24,1.8-4.83,4.45-9.33,6.48-13.92,5-11.34,10.43-22.42,15.36-33.6,1.74-3.94,3.62-7.75,5.28-11.52.87-2,1.29-5,3.36-5.76,1.78-1.18,4,1,3.6,2.88a28.86,28.86,0,0,1-2.4,5.52c-3.49,7-6.6,14.26-9.84,21.6-1.52,3.46-4,7-5,10.8H557v-.48c1.89-2.12,2.73-5.56,4.08-8.16,2.87-5.52,5.77-11.29,8.64-16.8,1.75-3.34,2.41-8.83,7.2-7.68a4.5,4.5,0,0,1,1,2.88L559.16,202h.24v-.24c1.67-1.85,2.28-4.54,3.6-6.72,3.21-5.28,6.15-11,9.36-16.32,1.36-2.23,3.47-8.56,5.76-9.36.88-.7,1.59-.27,2.64,0a4.5,4.5,0,0,1,1,2.88l-28.08,51.12h.24v-.24c2.81-2.9,5.18-8.84,7.44-12.48,5.71-9.17,11.33-18.67,17-27.84,2-3.22,3.8-6.49,5.76-9.6.63-1,1.29-2.76,3.12-2.4,1.41.27,1.6,1.53,2.4,2.4.88-.7,1.59-.27,2.64,0,1.91,3.16-.49,5.24-1.92,7.68-3.26,5.59-6.53,11.06-9.84,16.56h.24c3-5.32,7.19-10.09,10.56-15.12,1.46-2.16,2.34-5.35,5.52-5.76A17.86,17.86,0,0,0,599,178c1.85-1.84,2.17-4.92,5.76-5,.62.57,1.11.52,1.44,1.44a2.55,2.55,0,0,1,.48,1.68c-2.5,3.21-4.38,6.75-6.72,10.08-7,9.92-14.1,19.77-21.12,29.76-3.24,4.61-6.54,9.23-9.84,13.92-1.46,2.09-3.9,4.18-4.8,6.72h.24c.33.39.16.27.72.48v-.24c1.4-1,2.11-2.9,3.12-4.32,2.69-3.75,5.46-7.44,8.16-11.28,5.3-7.52,11.26-14.8,16.56-22.32,3.89-5.51,7.42-11.48,12-16.32,1-.06,1.42-.3,2.16.24.79.25.94.43,1.2,1.2a3.7,3.7,0,0,1,.24,1.92c-2.54,2.71-4.32,6.3-6.48,9.36-4.47,6.35-9.69,12.38-13.92,19h.24V214c2.42-1.74,4.23-5.26,6-7.68,1.41-1.91,3.4-3.6,4.8-5.52a152.31,152.31,0,0,1,11.52-14.4,12.51,12.51,0,0,1,2.64.24c2.6,4.07-2.63,7.43-4.56,10.08-4.49,6.17-9.37,11.87-13.92,18-2,2.7-4.6,5.1-6.48,7.92h.24v-.24a12.06,12.06,0,0,0,2.64-3.12c1.82-2.41,4.14-4.49,6-7,1.74-2.3,4.27-4.18,6-6.48a214.42,214.42,0,0,1,15.12-17.52,12.51,12.51,0,0,1,2.64.24,6.25,6.25,0,0,0,1,1.2,4.31,4.31,0,0,1-.24,2.16c-1,3-6.63,7.43-8.64,10.08-5.57,7.38-12.19,13.74-17.76,21.12-1.76,2.34-4.34,4.25-6,6.72h.24v-.24a30,30,0,0,0,6.48-6.72c1.59-2.1,3.89-3.6,5.52-5.76l2.4-2.16,5.28-5.76,3.84-3.6c1.64-2.16,3.94-3.66,5.52-5.76.9-1.18,2.2-3.27,3.6-3.84h2.16c.25.19.07.09.48.24a6.25,6.25,0,0,0,1,1.2,4.31,4.31,0,0,1-.24,2.16c-.84,2.36-5.16,5.64-7,7.44a77.91,77.91,0,0,0-7,7.68c-1.65,2.19-4.06,3.75-5.76,6-1.14,1.51-3,2.47-4.08,4.08h.24c1.58-2.44,4.64-4,6.72-6,1.12-1.06,2.53-3.12,4.08-3.6,1.12-.34,1.93.3,2.64.48a5.76,5.76,0,0,1,.72,3.12c-2.22,2.06-4.31,4.66-6.72,6.48a15.28,15.28,0,0,0-3.36,2.88h.24c1.57-1.59,7.25-5.21,10.08-5.28.47.47.89.54,1.2,1.2.51.55.51,1.28.48,2.4-.6.59-.76,1.12-1.68,1.44v.24H617c.8-.61,1.84-.53,2.88-1,3.21-1.32,6.34-3.3,7.68-6.48s1.59-7.12,2.4-10.8.28-8.82-.48-12c-1-4.07-1.24-7.3-3.12-10.32-1.57-2.52-4.1-4.48-6.48-6.24-2.72-2-5.28-4.65-8.16-6.48-5.11-3.24-10.76-5.64-15.6-9.12-1.92-1.38-5.6-4.36-7-6.24-2.35-3.24-3.44-6.59-6.72-8.88C578.81,148.06,573.5,147.88,568.28,146.76Z"/><path class="cls-1" d="M305.72,147.72c.17.28,1.87,2.31,2.16,2.16C307.42,149.83,306.26,148,305.72,147.72Z"/><path class="cls-2" d="M299.24,149.16l-1,1.2a15.93,15.93,0,0,0,2.88,2.16c2,1.51,3.7,3.49,5.76,5,1.21.91,2.15,2.45,3.36,3.36,6.24,4.71,11.52,10.41,17.76,15.12,2,1.54,3.6,3.85,5.76,5.28-1.33-2-3.83-3.83-5.76-5.28-2.31-1.75-4.11-4.21-6.48-6l-2.88-3.12c-5-3.77-8.92-8.7-13.92-12.48C302.78,152.94,301.37,150.57,299.24,149.16Z"/><path class="cls-1" d="M310,151.8c.11.19.93,1.33,1.2,1.2C310.92,152.89,310.41,152,310,151.8Z"/><path class="cls-1" d="M297.8,156.84c.11.19.93,1.33,1.2,1.2C298.68,157.93,298.17,157.08,297.8,156.84Z"/><path class="cls-2" d="M246.92,255.48c3.36-.08,12.13-.8,13,1.44a2.55,2.55,0,0,1,.48,1.68c-.43.52-.79,1.17-1.2,1.68-2.51,1-7.24.5-10.56.48V261h.24c2.92,1.72,9.78-1.66,11,1.68,3.3,4.12-5.18,4-8.4,3.84v1c2.39,1.63,2.62,1.5,6.72,1.44a2.78,2.78,0,0,0,1.2.48,4.94,4.94,0,0,1,1,2.64c-.66.85-.64,1.39-1.68,1.92v.24h.24c1.67,2.11,4.78,3.19,7.44,4.32,6.63,2.81,18.66,5,28.08,2.64,5.85-1.45,11.95-2.16,17.28-4.32,12.9-5.22,28.63-10.89,46.08-11v-.24c-5-3.22-8.28-8.89-10.56-14.88-8.43-.32-16.59-3-23.28-5.52-3.59-1.34-7.89-1.2-6.72-6a4.5,4.5,0,0,1,2.88-1c2.38,1.77,6.09,2.12,9.12,3.12,4.91,1.62,10.6,3.49,16.56,3.84l-.24-7a27.67,27.67,0,0,1-5.28-2.16c-4-1.72-8.11-3.15-12-4.8-11.58-4.91-23.38-9.08-34.8-13.92-4.44-1.88-8.92-3.47-13.2-5.28-1.94-.82-4.18-1-5.28-2.64-1.38-1.66.34-3,1.2-3.84,3-.08,4.68,1.28,6.72,2.16,4.44,1.9,8.93,3.45,13.2,5.28,10.22,4.37,20.49,7.66,30.72,12,4.28,1.81,8.76,3.4,13.2,5.28a43.76,43.76,0,0,0,5.76,2.4v-.48c-4.06-.83-9.43-4.11-13.2-5.76-8.79-3.84-17.53-7.51-26.16-11.28-2.53-1.11-11.48-3.85-12.24-6-.42-.46-.45-.75-.48-1.68.59-.68,1.09-1.28,1.68-1.92,2.6,0,3.62.95,5.28,1.68,3.52,1.54,7.49,3.54,11,4.56-1.12-1-2.58-1.26-4.08-1.92-3.38-1.49-7-3.55-10.32-5.28-1.63-.85-4.39-1.3-5-3.12-.42-.46-.45-.75-.48-1.68.59-.68,1.09-1.28,1.68-1.92,3.88-.06,10.45,4.2,13.44,5.76,6.12,3.19,12.3,5.56,18.48,8.64,2.7,1.35,5.59,2.62,8.4,4.08a25.93,25.93,0,0,0,4.8,2.4c-.92-.82-2.19-1.07-3.36-1.68-3-1.54-6.05-3-9.12-4.56-8.69-4.52-17.71-8.91-26.4-13.44-3.22-1.68-6.47-3.17-9.6-4.8-1.37-.72-3-.85-3.6-2.4-.42-.46-.45-.75-.48-1.68,1.11-1.4,1.12-2,3.84-1.92,1.65,1.46,4.22,2.07,6.24,3.12,4.71,2.45,9.59,4.7,14.4,7.2,8.84,4.6,18,8.79,26.88,13.44,3,1.54,6.06,3,9.12,4.56a22.07,22.07,0,0,0,4.32,2.16c.08-1.74,1.39-5.83.72-7-.93-1.31-2.54-2.15-3.84-3.12A73.51,73.51,0,0,1,342,203.4a12.51,12.51,0,0,1,.24-2.64,4.25,4.25,0,0,1,3.12-1,33.52,33.52,0,0,0,3.36,2.4c1.57,1.17,2.74,2.89,4.56,3.84.56-3.95,3.93-5.71,5.76-8.4l-4.56-4.08-.24,2.4a6.17,6.17,0,0,0-1.2,1,4.33,4.33,0,0,1-2.16-.24c-2.77-1-5.4-5.27-7.92-7,.44,2.16-.51,3.52-2.88,3.6-.74-.6-1.63-.87-2.4-1.44-1.89-1.41-3.4-3.62-5.28-5-6.91-5.22-12.76-11.58-19.68-16.8-4.63-3.49-8.34-8.52-13.2-11.76v.24h.24c1.64,2.43,6.66,6.3,9.12,8.16,4.23,3.19,7.54,7.85,11.76,11,2.32,1.75,8.72,6.22,8.88,9.6-1,1.22-1,1.94-3.36,1.92-4.67-4-9-8.31-13.92-12-3.39-2.56-6.14-6-9.6-8.64s-6.14-6-9.6-8.64c-.82-.62-1-1.51-2.16-1.92-.36.53-2.17,2-1.68,2.4l6,6.24c.71.71,2.29,1.7,1.68,3.6-.24.78-1.09,1.2-1.44,1.92,1.64.5,2.8,1.78,4.08,2.64,2.58,1.72,5.16,3.45,7.68,5,6.68,4.23,14.84,8.35,20.4,13.68.1,2.43-.67,3.51-2.88,3.6-2.61-2-5.62-3.29-8.4-5-5.5-3.48-11-7.14-16.56-10.8-3.87-2.56-7.73-5.14-11.76-7.68-1.18-.74-2.13-1.91-3.6-2.4V177c-.52.83-.17,2.31-.48,3.36a12.46,12.46,0,0,1-4.08,6.24c-3.82,2.79-8.52,4.34-12.48,7-1.44,1-3.11,2.05-4.56,3.12l-1.92,2.16c-2.74,1.88-6.58,4.07-7.68,7.44,2.06.48,7.67,2.82,8.64,4.32a2.83,2.83,0,0,1,.48,1.92c-.64.68-.76,1.21-1.68,1.68.25.19.07.09.48.24,1.54,1.16,2.86,1.07,2.88,3.84-.5.52-1,1.16-1.44,1.68,1.84.16,4.51.83,5,2.4.71.88.27,1.59,0,2.64-2.26,1.38-4.31.54-6.72-.24-4.56-1.48-9.15-2.47-13.68-3.6l-.24,2.88c2.3.59,4.63,1.77,7.2,2.4,3.37.82,7.43.11,10.56.48.77,1.11,1.23,1.25,1.2,3.36-4.42,4.3-14.8.51-19.68-.72v5.52c-.68,1.08-.24,4.19-.24,5.76C246,246.28,246.55,251,246.92,255.48Z"/><path class="cls-2" d="M483.08,159.24a5.54,5.54,0,0,0,.48,2.16A3.06,3.06,0,0,0,483.08,159.24Z"/><path class="cls-1" d="M483.56,161.64c.05.56.05.68.24,1C483.76,162,483.76,161.92,483.56,161.64Z"/><path class="cls-1" d="M483.8,163.32c.09.5.06.46.24.72C484,163.54,484,163.58,483.8,163.32Z"/><path class="cls-1" d="M548.84,163.32c.09.5.06.46.24.72v-.72Z"/><path class="cls-2" d="M484,164.52c.09.5.06.46.24.72C484.19,164.74,484.23,164.78,484,164.52Z"/><path class="cls-1" d="M548.6,164.52V165h.24C548.69,164.58,548.8,164.77,548.6,164.52Z"/><path class="cls-1" d="M285.8,164.76a3.79,3.79,0,0,0-.24,1c.48.17,2.88,1.68,2.88,1.68v-.24Z"/><path class="cls-2" d="M533.72,215.88c.41-3.15,3.54-8.36,4.8-11.28,3.18-7.34,5.7-14.5,8.88-21.84,1.63-3.75,3.91-7.68,5-11.76h-.24c-1.8,2.74-3.65,0-4.56-1.2-.08,5.08-1.45,11-4.08,13.68a27,27,0,0,1-4.8-.24v.24c1.06.91.59,2.69,0,3.84l-5,10.32H534v-.24c1.45-1.54,2.25-3.6,3.84-5.28,2-.05,4,.77,3.6,2.88-.5,2.44-2.85,5-4.08,7-1.87,3-3.47,6.18-5.28,9.12-.72,1.18-1,2.45-1.92,3.36.16.42,0,.23.24.48A7.16,7.16,0,0,0,533.72,215.88Z"/><path class="cls-1" d="M710.36,200.28c.42.21.31.21.72,0Z"/><path class="cls-1" d="M587.72,214.68l-.24.48C587.9,214.82,587.72,214.68,587.72,214.68Z"/><path class="cls-2" d="M248.36,216.12c1.85.24,5.29,2.15,6.72,1.44-2.33-.58-4-2.22-6.48-2.64v.48C248.42,215.66,248.46,215.63,248.36,216.12Z"/><path class="cls-1" d="M255.32,217.8c.25.19.07.09.48.24C255.56,217.85,255.74,218,255.32,217.8Z"/><path class="cls-2" d="M427.64,277.8v2.64c-1,.68-1.21,1.31-2.88,1.44-2.41-1.95-5-3.87-6.48-6.72H418a2.36,2.36,0,0,1-1.68,2.4,3.78,3.78,0,0,1-1.92.24,15.91,15.91,0,0,0-2.4-1.92v.72c.4.61.12,1.14,0,1.92,1.82.45,3.19,1.93,4.8,2.64,5.76,2.56,11.3,4.69,16.56,7.44a246.47,246.47,0,0,1,28.32,17c3.6,2.53,6.84,5.79,10.32,8.4,3,2.22,5.47,4.74,8.4,7l1.92,2.16c.89.66,2,1,2.64,1.92,1.27,1.7,1.55,4.27,2.88,6,.2-7.69-1.41-14.78-3.12-20.88-.5-1.81-1-7.19-2.16-7.92a2.66,2.66,0,0,1-2.16.72l-1.68-1.2c-1.55-2.28-2.17-9.32-3.12-12.48-.34-1.16-1.54-3.25-1-5,.72-2.22,2.76-.94,3.6-2.16-.7-1.06-.36-2.63-.72-4.08-1-4.16-1.08-9-1-13.92h-.48c-.64.44-1.7.16-2.4,0-1.23-2.08-2.05-5.15-2.88-7.68-.33-1-.17-1.9-.72-2.64-.13,1.53-.82,2.52-2.4,2.64-.39.2-.62.06-1.44,0-2.31-3.41-3.06-7.79-4.8-12-2.41-5.85-4.31-12.39-6.72-18.24-1.08-2.64-1.19-6.28-2.88-8.4-.94.72-2.13,1-3.12,1.68C444,222.68,438.64,226,434.6,230c-1.09,1.09-4.63,3.86-3.84,5.76.42,1.25,1.48,1.93,2.16,2.88,1.9,2.63,3.92,5.12,5.76,7.68,4,5.55,8.29,10.84,12.24,16.32,1.79,2.48,3.34,5.58,5.52,7.68a11.31,11.31,0,0,1-.24,2.64,4.77,4.77,0,0,1-3.12,1,148.52,148.52,0,0,1-10.56-13.2c-1.31-1.83-2.48-4.47-4.32-5.76v.24c1.57,1.25,2.47,3.58,3.6,5.28,2.34,3.51,4.82,7,7.2,10.56,1.37,2.05,3.56,3.65,3.84,6.72-.95,1.25-1,2-3.12,2.16-5.25-4.56-8.44-11.52-12.48-17.28-2.58-3.68-5-7.52-7.68-11.28-2-2.8-4.4-5.52-6-8.64a2.7,2.7,0,0,0-1.68,1.68c2.42,1.9,4,5.62,5.76,8.16,2.75,3.9,5.61,7.78,8.4,11.76.81,1.15,2.26,2.33,2.88,3.6,1.16,2.35-.76,4-2.88,4.08a43.51,43.51,0,0,1-6.48-7.68c-.75-1.06-1.14-2.33-2.16-3.12v.24c1.49,1.52,2.2,3.67,3.36,5.52,2.92,4.63,5.7,9.36,8.64,14.16,1.5,2.44,3.75,4.63,3.84,8.4-.57.61-.52,1.1-1.44,1.44-.91.74-1.81.28-2.88,0-2.63-5.54-6.23-10.25-8.88-15.6h-.24v.24c-.52.7-1,1.48-1.44,2.16Z"/><path class="cls-2" d="M457.64,217.8a33.43,33.43,0,0,0,2.16,5.76l1.2,4.32c1.61,3.88,3.09,8.32,4.56,12.24,1.12,3,2.39,9.65,4.08,11.76v-.72c-1.48-2-1.75-6.67-2.64-9.36-2.48-7.55-4.93-15.64-6.72-23.52A7.07,7.07,0,0,0,457.64,217.8Z"/><path class="cls-2" d="M466.52,221.16l10.32,36.24,1.44-32.16H478C474.37,228.81,469.23,222.1,466.52,221.16Z"/><path class="cls-2" d="M490.76,221.88a2.54,2.54,0,0,1-1.44.24l-.24.72c-1,1.41-.27,3.44-.72,5.52-.87,4.14-.05,9.47-1,13.68v5c-.72,3.46.3,7.52-.48,11.28-1.84,8.9.21,19.19,2.16,26.16,1.62,5.77,2,11.2,3.84,16.8,2.35,7.28,4.64,16.73,4.8,25.68H498v-.48c1.54-1.59.66-7.89,0-10.56-1.26-5.16-1.27-10.72-2.64-16.08-1-3.9-1.86-9-1-12.72a5.45,5.45,0,0,1,3.12-.72c.25.19.07.09.48.24,1.37,2.48.85,8.11,2.16,10.08l-.48-30.48c0-3.18-.92-9.41,1.44-10.32a2.63,2.63,0,0,1,1.68-.48c.69.64,1.32.65,1.68,1.68,1.16,1.56.48,10.14.48,13l.24,11.52c0,2.85-.28,6.44.24,8.88.77,3.55-.45,8,.24,11.28.55,2.54-1,6.89.24,8.88l2.64-47.28v-4.56c.6-2.72.11-6.41.72-9.12.42-1.85-.16-2.75,1.44-3.36a2.63,2.63,0,0,1,1.68-.48c.75.61,1.32.64,1.68,1.68.74,1,.34,4.66,0,6.24l-.72,16.08c0,1.73-.85,4.59,0,6,0-2.72,1.39-11.61,3.12-12.24.88-.7,1.59-.27,2.64,0a6.25,6.25,0,0,0,1,1.2,45.19,45.19,0,0,1-1.68,11.52l-1,7.2c-.37,1.52-1.64,5.67-1,7a16.4,16.4,0,0,1,1.68-4.32c1.36-3.21,2.53-6.37,3.84-9.36.78-1.77.77-3.63,3.12-3.84.49-.23.95.06,1.68.24a6.25,6.25,0,0,0,1,1.2c.06,3.14-1.25,4.62-2.16,6.72a80.94,80.94,0,0,0-3.84,10.08H522a26,26,0,0,1,3.36-3.36,84.4,84.4,0,0,1,9.12-8.16c2.82-2.1,5.49-4.67,8.4-6.72,8.3-5.82,17.69-10.24,27.6-14.4v-.24h-.24c-.78-2.68-3.24-3.53-4.56-5.52a42.79,42.79,0,0,0-10.8-11c-7.73-5.75-14.88-12.41-24.48-16.32-5.72-2.33-12.87-1.41-19.68-2.88-3.14-.68-6.53.13-9.36-.48-2.65-.57-5.11,1-7.2.48A13,13,0,0,0,490.76,221.88Z"/><path class="cls-1" d="M588,223.08l-.24.48C588.14,223.22,588,223.08,588,223.08Z"/><path class="cls-1" d="M553.4,223.56l-.48,1h.24v-.24C553.48,223.86,553.58,223.9,553.4,223.56Z"/><path class="cls-1" d="M589.16,230l-.48.72C588.77,230.8,589.82,230.12,589.16,230Z"/><path class="cls-2" d="M606.68,248.76l1.68-.24v-.24c-1.17-.88-.82-2-.48-3.36,1.73-1,5.63-1.81,7-2.88l.72-2.16c.36-.53,1.06-.86,1.44-1.44h-.24c-1.25.83-3,.68-4.56,1.2-2.6.85-5.36,1.47-8.16,2.4-4.77,1.6-9.9,3.09-14.64,5a54.87,54.87,0,0,1-6.48,2.64V250h1c1.54-1,4-.68,6-1.2,4.34-1.15,11-3.11,15.6-2.64C606.11,247.05,606.61,247.15,606.68,248.76Z"/><path class="cls-2" d="M661.16,243.24c-1.89,1.13-5.56,0-7.92.48-4.15.91-9.15.54-13.2,1.44-2,.45-4.71-.26-6.24.72a42.36,42.36,0,0,0,7.2-.48h7.2a14.59,14.59,0,0,1,4.8,0l8.16.24c2.55.55,5.46.32,8.16,1,4.49,1.06,10.7,2,15.84,1a6.47,6.47,0,0,0,1-3.12h-.48c-1.22-.81-3.09-.34-4.8-.72C675.27,242.49,667.53,243.23,661.16,243.24Z"/><path class="cls-1" d="M616.76,246.84c-.24.19-.06.09-.48.24v.24h1.44v-.24h-.24v-.24Z"/><path class="cls-1" d="M582.2,250c.25.19.07.09.48.24C582.44,250,582.62,250.12,582.2,250Z"/><path class="cls-2" d="M414.44,250.92c-.43.65-.9.85-1.2,1.68,1.09.87,1.57,2.23,2.4,3.36,2.55,3.48,5.64,6.82,8.16,10.32.95,1.32,1.54,2.93,2.88,3.84-2.58-4.65-5.83-9-8.64-13.44C416.91,254.88,416.08,252.21,414.44,250.92Z"/><path class="cls-1" d="M469.64,252.12v.48h.24C469.73,252.18,469.84,252.37,469.64,252.12Z"/><path class="cls-1" d="M437.72,254.28c-.08.33.34.35.48.48C438.37,254.51,437.79,254.35,437.72,254.28Z"/><path class="cls-2" d="M406.76,261.48c-.23.81-1,1.89-.72,2.4.94,1.31,2.55,2.15,3.84,3.12,1.82,1.37,3.33,3.29,5.28,4.56-1.51-2.47-3.83-4.43-5.52-6.72C408.78,263.67,408.24,262,406.76,261.48Z"/><path class="cls-2" d="M395,268.68c-1.27,0-3.73-.3-4.56.24a13.65,13.65,0,0,1,4.56,1.2Z"/><path class="cls-1" d="M405.32,270.36l.24.72h.24v-.48Z"/><path class="cls-1" d="M426.68,270.36c-.08.33.34.35.48.48C427.33,270.59,426.75,270.43,426.68,270.36Z"/><path class="cls-1" d="M512.84,276.6c.09.5.06.46.24.72C513,276.82,513,276.86,512.84,276.6Z"/><path class="cls-1" d="M458.84,284.52H461c1.33,1.75,3.24,3.28,4.56,5,4.47,6,9.24,11.52,13.68,17.52,2,2.65,6.07,5.2,6.24,9.36-.46.56-.57,1-1.2,1.44-2.93,2.15-6.14-4.25-7.44-5.76-3.26-3.79-6.35-7.7-9.36-11.76-1.18-1.59-2.9-3-4.08-4.56-1.89-2.56-3.71-5.5-6-7.68a12.51,12.51,0,0,1,.24-2.64A5.63,5.63,0,0,0,458.84,284.52Z"/><path class="cls-2" d="M488.36,333.24c.25,4.15,1,8.34,1,13.2,0,1.81-.75,4.81,0,6,.13-6.05,3.27-11.47,4.56-16.56C490.5,335.94,490.1,334.63,488.36,333.24Z"/><path class="cls-1" d="M525.08,476.28a61,61,0,0,0,6.24.24,3.1,3.1,0,0,1,.24,1c-1.44.49-1.29,2.13-1.2,4.08,6,0,11.89-.23,17.28-.48v7.2a58.22,58.22,0,0,0,7.92-.48,16.59,16.59,0,0,1,.24,4.56l-8.16-.24v6.72c-5.43,0-11.49-.23-17.28-.24v2.64c5.19-.31,15.86.72,20.16-.72v4.8h-.24c-.88-.55-2.6,0-3.84-.24-4.6-1-11-.27-16.08-.24V508c8.18,0,16.07-.43,23.76-.48v4.8c-16.53-.69-35-.26-51.6,0v-4.8c7.47,0,15.11.46,23,.48v-3.12l-19.2.24a16.59,16.59,0,0,1,.24-4.56c5.11,1.67,13.15.08,18.72.72a8.36,8.36,0,0,0,.24-2.64c-5.88,0-12,.22-17.52.24v-4.56c5.43.36,11.5.47,17.52.48v-2.64c-8.15,0-16.7.21-24.48.24V487.8c7.45.84,16.32.47,24.48.48v-2.64a4.55,4.55,0,0,0-1.44-.24c-.92.58-3.42.24-4.8.24-4,0-7.87.25-11.52.24v-4.8c5.5.12,11.66.46,17.76.48Z"/><path class="cls-1" d="M671,484.68v8.88a16.57,16.57,0,0,1-4.56.24v-5H645.32v4.8a16.57,16.57,0,0,1-4.56.24v-.24h-.24c0-1.18.26-3.33-.24-4.08a8.35,8.35,0,0,1-3.36,3.12c-.56-1.62-6.59-7.08-8.4-7.44-1.16,4.43-5.53,7.32-7,11.52h1.68c.88.55,3.25.24,4.56.24,4,0,8-.19,11.76-.24-.41,6-.06,13.22,0,19.2l-14.16-.24v9.12c1.58-.16,7.65-2.21,8.4-3.12a8.82,8.82,0,0,1-2.16-2.64c.91-.23,3.71-2.09,4.08-1.68,1.6,1.08,6.33,7,6.72,9.12a11,11,0,0,0-3.84,2.4c-.42-.15-.23-.05-.48-.24L636,525c-3.54,1.53-7.16,2.73-10.8,4.32-1.46.64-2.39,2.1-3.84,2.64-.5-2.34-2.16-3.36-2.88-5.28a4.5,4.5,0,0,0,2.4-1.68c.09-8.76,0-18.55,0-27.36h-.24v.24a8.66,8.66,0,0,0-1.92,2.88c-.19-.24-.08-.07-.24-.48a13.82,13.82,0,0,1-2.88-3.84c3.55-2.59,7.23-9.32,9.36-13.44.88-1.69,1.15-4.38,2.4-5.76,1.36,1,5,1.12,5.76,2.64h-.24c-.77.71-1.42.61-1.68,1.92,3.55,1.08,6.35,4.4,9.36,6.24v-3.36l13.2.24v-.48c-1.15-1.5-1.94-3.73-2.88-5.28,1.12-.54,3.86-2.28,4.8-1.92a12.36,12.36,0,0,1,2.64,5.76,25,25,0,0,1-4.32,1.68v.24h11C666.09,484.22,669.41,484.65,671,484.68Z"/><path class="cls-1" d="M389,480.36c15.48.24,32.53.24,48,0-.07,17.12-.92,36.3.24,53H432v-2.88H394a12.42,12.42,0,0,0-.24,3.36h-5C389,516.94,389.27,497.67,389,480.36Z"/><path class="cls-2" d="M393.8,484.92v42H432v-42Z"/><path class="cls-2" d="M530.36,485.4v2.88h12.48v-2.64C539.65,484.58,534.07,485.38,530.36,485.4Z"/><path class="cls-1" d="M399.8,486.84c8.35.08,18.06.08,26.4,0,0,3.89,0,6.43,0,10.32a99.6,99.6,0,0,1-11-.24,8,8,0,0,0-.24,2.4l15.84-.24v3.6l-15.84-.24v2.4l12.72-.24v19.92H398.36V504.6c3.76,0,8.13.23,12.24.24v-2.4l-15.6.24v-3.6l15.6.24v-2.16H399.8C399.84,493.84,399.82,490.18,399.8,486.84Z"/><path class="cls-1" d="M628.52,496.44c-.12-2.28-1.18-3.58-1.68-5.52l4.32-1.68,2.4,5.76h-.48A11.81,11.81,0,0,1,628.52,496.44Z"/><path class="cls-2" d="M404.6,490.44V494h16.8v-3.6Z"/><path class="cls-2" d="M530.36,492.12v2.64h12.48v-2.64Z"/><path class="cls-1" d="M644.36,494.52H666c0,4.55,0,9.84,0,14.4-5.33,0-11.34-.23-17-.24V514l19.2-.24v.48c-.6,1-.24,3.62-.24,5,0,4.59.27,9.23.48,13.2h-5V528.6h-14.4v4.56h-4.8a39.19,39.19,0,0,1,.48-7.2V516.6C644.6,509.27,644.42,501.48,644.36,494.52Z"/><path class="cls-2" d="M648.92,498.6v6h12.24v-6Z"/><path class="cls-2" d="M625.4,500.76v3.84h9.84v-3.84Z"/><path class="cls-2" d="M402.68,508v13.2h20.4V508Z"/><path class="cls-2" d="M625.4,508v4.32H635a14.6,14.6,0,0,0,.24-4.08H635V508Z"/><path class="cls-1" d="M420.2,509.88V519a87.28,87.28,0,0,0-14.64,0l-.24-.72c.68-1,.27-7.14,0-8.4Z"/><path class="cls-2" d="M409.4,512.52v3.36h6.72v-3.36Z"/><path class="cls-1" d="M547.64,514.2c-.68,5.91-.06,13.27,0,19.2h-5v-2.88H514v2.88h-5A182.7,182.7,0,0,0,509,514h.24c1.34.83,8.38.24,10.56.24Z"/><path class="cls-2" d="M648.92,517.8v7h14.4v-7Z"/><path class="cls-2" d="M514,518v2.88h28.32a9.65,9.65,0,0,0,.24-2.88Z"/><path class="cls-2" d="M514,524.28v2.64H542.6v-2.64Z"/><path class="cls-1" d="M488.12,540.36c-.05,4.41.08,8.92,1,12.24a9.12,9.12,0,0,0,1.92.48v-.48c-1.57-2.33-1.63-6.64-2.4-9.6C488.35,542,488.59,541.05,488.12,540.36Z"/><path class="cls-1" d="M348.92,565.08c39.76-.7,58,14.17,72.72,38.4,1.58,2.59,2.16,5.47,3.36,8.4,1.94,4.72,3,10.3,4.32,15.84.79,3.28,0,6.34.72,9.84a31.46,31.46,0,0,1,0,10.56c-.63,2.8.15,5.29-.48,7.92-1.73,7.3-2.6,14.21-5.28,20.4-7.57,17.51-20.47,31.75-37.92,39.36-6.74,2.94-13.73,3.66-21.84,5.52l-10.8.24c-10.42,0-19.45-1.73-26.88-4.8-19.53-8.07-33.66-20.71-42-39.84-1.65-3.79-2.31-7.48-3.6-11.76-1.58-5.27-4-18.7-2.4-25.68.67-3-.17-5.63.48-8.4,1.42-6,1.92-12,4.08-17.28,8.3-20.21,21.53-35,41.52-43.44,4.79-2,10.18-3,15.6-4.32C342.61,565.53,347.39,566,348.92,565.08Z"/><path class="cls-1" d="M.68,568.44H106.52l.24.72c.78,1.24.24,7.57.24,9.6v17.52c0,3,.26,6.56-.24,9.12-2.55.86-7,.26-10.08.24a3.16,3.16,0,0,1-.48-1.92c-.91-1.5-.47-3.86-1-5.76-1-3.91-1.42-8.54-2.4-12.48-.5-2.06-.09-5-1.2-6.48-.8-.5-2.85-.24-4.08-.24H41.24v.48c-.54.89-.24,3.23-.24,4.56v55c2.52.83,6.86.24,9.84.24H72c.25-.19.07-.08.48-.24v-1.44l2.4-17.76c2-.67,5.5-.26,7.92-.24,1,3,.24,11.49.24,15.36v33.84c-1.64.86-5.25.51-7.68.48-.24-.19-.06-.08-.48-.24a109.4,109.4,0,0,0-1.92-14.16c-.41-1.81.3-4.83-1.2-5.52-1.47-.92-5.87-.24-7.92-.24H49.16a47.41,47.41,0,0,0-7.92.24c-.47,1.44-.24,3.92-.24,5.76v53.28a4.31,4.31,0,0,0,2.4.48c1.33.8,3.55.1,5.28.48l13.2,1.44V711c.81,1.26.28,5.17.24,7-2.45,1.25-13.84.48-17.76.48H.68l-.24-.72c-.78-1.21-.27-5-.24-6.72a4.62,4.62,0,0,1,3.12-.72c1.27-.78,3.35-.11,5-.48a66,66,0,0,1,12.48-1.2c1.18-2.32.48-7.6.48-10.8V578.52h-.24v-.24a30,30,0,0,1-6.72-.72c-3.35-.74-6.78-.28-9.84-1-1.73-.38-3.42.48-4.08-1C-.42,574.36.15,569.44.68,568.44Z"/><path class="cls-1" d="M138.2,568.44h61.92c.65,1.92.26,5.32.24,7.68h-.24v.24l-21.36,1.92c-1.18,2.32-.48,7.6-.48,10.8V707.64c2.69,1.37,11.71.48,15.6.48H231.8v-.24H232a29.23,29.23,0,0,1,1.2-6.48c1.06-4.16,1.15-8.32,2.16-12.24.58-2.23.17-5.59,1.44-7.2,1-.93,8.19-.58,9.84-.24l.24.72c.76,1.22.24,7.37.24,9.36v17.28c0,3,.26,6.56-.24,9.12-2.71.89-7.36.24-10.56.24H138.2c-.83-1.59-.51-5.07-.48-7.44.2-.24.09-.07.24-.48h.48c1.23-.75,3.15-.12,4.8-.48a78.71,78.71,0,0,1,14.88-1.44c1.18-2.32.48-7.6.48-10.8V578.52h-.48c-1.61-1-4.34-.25-6.48-.72a85.58,85.58,0,0,0-13.44-1.44C137.38,574.84,137.4,570,138.2,568.44Z"/><path class="cls-1" d="M459.08,568.44h58.8c.65,1.92.26,5.32.24,7.68h-.24v.24l-18.24,1.92a2.57,2.57,0,0,0-.48,1.44c1.33,1.84,1.48,4.5,2.4,6.72,2.37,5.74,4,11.84,6.48,17.76,8.24,19.95,14.35,41.24,22.56,61.2,2.44,5.92,4.13,12,6.48,17.76.89,2.17,1,5,2.4,6.72v-.48c1.21-1.63,1.33-4,2.16-6,1.75-4.23,3-8.78,4.8-13.2,4.32-10.44,7.69-21.72,12-32.16,1-2.54,1.36-4.9,2.4-7.44,1.74-4.24,3-8.77,4.8-13.2.53-1.3,2.41-3.89,1.92-5.76a72,72,0,0,0-2.64-6.72c-2.51-6.68-4.51-13.4-7-19.92-.78-2.09-.88-6.32-3.6-6.48-1.82-1.07-10.07-1.09-12.72-1.68-1.91-.43-4.79.39-5.52-1.2-.81-1.23-.28-5.62,0-7,1.44-.47,3.93-.24,5.76-.24h53.28c.84,1.59.51,5.07.48,7.44a2.8,2.8,0,0,1-1.68.48c-1.1.68-2.84.15-4.32.48a68.23,68.23,0,0,1-12.72,1.44,3.58,3.58,0,0,0-.48,1q19.08,55.44,38.16,110.88v-.48c2-2.84,2.65-8,4.08-11.52,3.5-8.46,5.8-17.51,9.36-26.16,4.91-11.91,8.54-24.8,13.44-36.72,1.24-3,1.65-5.87,2.88-8.88,2.13-5.16,3.57-10.73,5.76-16.08a84.41,84.41,0,0,0,4.32-11.76c-2.74-1.51-14.1-2-18.24-2.16-.83-1.59-.51-5.07-.48-7.44,2.57-1.31,10.92-.48,14.64-.48h35.76c.84,1.59.51,5.07.48,7.44a2.8,2.8,0,0,1-1.68.48c-1.27.78-3.34.11-5,.48a74.35,74.35,0,0,1-13.68,1.44c-3.41,8-5.72,16.5-9.12,24.72-11.53,28-20.38,57.47-31.92,85.44-3.27,7.94-5.89,16.14-8.88,24-.55,1.45-2.53,8.67-3.36,9.12h-7.2c-2.86-5.72-4-12.36-6.48-18.48-7-16.87-11.53-35.2-18.48-52.08l-1.2-4.32c-1.69-4.12-3.24-8.77-4.8-13-.56-1.51-1.25-5.57-2.4-6.24-.28,2.44-1.78,4.9-2.64,7-2.23,5.39-3.85,10.89-6,16.08-1.38,3.35-2,6.51-3.36,9.84-5.54,13.39-10.06,27.64-15.6,41-2,4.73-3.52,9.55-5.28,14.16-.49,1.3-1.42,5.54-2.4,6H530.6c-1.53-3-2.22-6.5-3.6-9.84-2.81-6.82-4.79-14.11-7.68-21.12C509,665.61,501.51,639,491.24,614c-3.59-8.75-6.08-17.84-9.6-26.4-.95-2.33-1.87-9-4.56-9.12-1.61-1-4.4-.26-6.48-.72a85.52,85.52,0,0,0-11.52-1.44C458.26,574.84,458.28,570,459.08,568.44Z"/><path class="cls-1" d="M714,568.44H822c1.19,2.31.48,7.61.48,10.8v25.68c-.19.25-.08.07-.24.48-2.55.86-7,.26-10.08.24v-.24h-.24a29,29,0,0,0-1.2-6.48c-1-4.12-1.19-8.35-2.16-12.24-.59-2.39-.14-5.9-1.44-7.68-.8-.5-2.85-.24-4.08-.24H754.52v.48c-.52.85-.24,3-.24,4.32V635.4c2.12,1.08,6.88.48,9.84.48h22.56a3.62,3.62,0,0,0,.48-2.16c1-1.71,1.13-9.3,1.68-11.76.43-1.89-.35-5,1.2-5.76,1.21-.83,6.92-.45,7.44.48,1,1.55.24,10.41.24,13v24.24c0,4.08.47,9.06-.24,12.72H797c-1.29.85-6,.3-7.44,0-1.36-4.33-.91-9.92-1.92-14.4-.42-1.88.34-5.53-1.2-6.24-1.16-.72-6.75-.24-8.64-.24h-23c-1.26,2.47-.48,14-.48,18v43.92c2.79,1.42,12.29.48,16.32.48h39.6v-.24h.24l4.8-26.16c1.81-.25,9.32-.81,10.08.48s.24,7.77.24,9.84V718c-2.07,1-6.69.48-9.6.48H714l-.24-.72c-.78-1.21-.27-5-.24-6.72a4.62,4.62,0,0,1,3.12-.72c1.27-.78,3.35-.11,5-.48a66,66,0,0,1,12.48-1.2c1.18-2.32.48-7.6.48-10.8v-119a3.62,3.62,0,0,0-2.16-.48c-1.23-.73-3.17-.12-4.8-.48-3-.68-6.82-.53-9.84-1.2-1.73-.38-3.41.47-4.08-1C712.83,574.31,713.47,569.51,714,568.44Z"/><path class="cls-1" d="M862,568.44h45.6c19.43,0,37.47.48,49.44,7.92,10.63,6.6,21.95,22.38,16.32,41a39,39,0,0,1-4.08,9.36c-4.62,7.35-12.77,12.73-21.12,16.32L939.56,646c.25.19.07.09.48.24,1.32,1.29,3.31,2,4.8,3.12a42.65,42.65,0,0,1,8.4,8.88c6.36,8.82,10.56,19.58,16.32,29,1.13,1.85,1.52,3.91,2.64,5.76,1.84,3,3.63,6.43,5.28,9.6.82,1.57,1.72,5.08,3.36,5.76,1.11.68,2.84.15,4.32.48a66.39,66.39,0,0,0,13.2,1.44,4.63,4.63,0,0,0,.72,1,38.22,38.22,0,0,1-.24,7c-3,1-8.05.24-11.52.24H961.88A183.14,183.14,0,0,1,953,700c-3-6.81-7.07-13.6-10.08-20.4-6-13.51-13.89-25.68-28.8-30.24-3.13-1-7.09-.73-11-.72-.47,1.44-.24,3.92-.24,5.76v53.76a4.89,4.89,0,0,0,2.64.48c1.43.87,3.9.07,5.76.48,4.56,1,10,.55,14.64,1.44V711c.81,1.26.28,5.17.24,7-2.51,1.28-14.46.48-18.48.48H862l-.24-.72c-.78-1.21-.27-5-.24-6.72a4.62,4.62,0,0,1,3.12-.72c1.27-.78,3.35-.11,5-.48a66,66,0,0,1,12.48-1.2c1.18-2.32.48-7.6.48-10.8V578.52h-.48c-2-1.23-10.92-1-13.92-1.68-2-.45-5.7.47-6.48-1.2C860.91,574.31,861.55,569.51,862,568.44Z"/><path class="cls-2" d="M348.44,575.16c-1.43.85-4,.28-5.76.72a75,75,0,0,0-11.52,3.6c-13.41,5.88-22.77,20-27.6,34.56-1.52,4.59-1.73,9.61-2.88,14.64l-.24,7.92c-.82,5.76.18,13.95,1.44,19,.94,3.73,1,6.9,2.16,10.32,5.82,17.51,14.63,30,29,38.88,5.66,3.49,19.2,8.82,29.52,6.48l4.32-.24c20.32-4.85,29.69-15.37,37-33.12,1.51-3.67,1.79-7.37,2.88-11.52,1.25-4.72,3-17,1.68-22.8V639c-1.33-5.89-1.14-11.93-2.88-17.28-6.9-21.25-17.68-38-38.88-44.88C361.47,575.14,355.24,575.17,348.44,575.16Z"/><path class="cls-2" d="M903.08,578.76c-.47,1.44-.24,3.92-.24,5.76V639c3.2,1.06,8.77.26,12.48.24,1.55-.92,10-.15,12.48-.72,9.15-2.13,15.82-5.18,20.4-11.76,2.17-3.11,2.81-6.41,3.84-10.8,1.45-6.17,0-14-1.92-18.48C943,580.61,927,578.76,903.08,578.76Z"/><path class="cls-1" d="M303.08,814v-2.4h.24v-.24l5.76-.48c-.38-3.36-2.82-7.82-4.08-10.8-.34-.81-.48-3-1.2-3.36H288.44c-1.18,5-4.69,9.2-5.52,14.4l5.52.24a4.18,4.18,0,0,1,.48,2.4c-3.06,1-11.91.26-15.84.24v-2.4h.24v-.24l6-.48c.9-4,3.25-8.11,4.8-11.76,3.18-7.44,5.79-15.05,8.88-22.32,1.05-2.46,1.91-4.9,2.88-7.2.35-.8.52-3,1.2-3.36h2.16c4.08,11.2,8.27,22.54,12.48,33.6,1,2.72,1.9,5.35,2.88,7.92l1,3.12h1.68c.89.58,3,.5,4.32.48v.48a3.7,3.7,0,0,1,.24,1.92c-1.43.48-3.92.24-5.76.24Z"/><path class="cls-1" d="M749.24,814v-2.4h.24v-.24l5.76-.48c-.38-3.36-2.82-7.82-4.08-10.8-.34-.81-.48-3-1.2-3.36H734.6c-1.18,5-4.69,9.2-5.52,14.4l5.52.24a4.18,4.18,0,0,1,.48,2.4c-3.06,1-11.91.26-15.84.24v-2.4h.24v-.24l6-.48c.9-4,3.25-8.11,4.8-11.76,3.18-7.44,5.79-15.05,8.88-22.32,1.05-2.46,1.91-4.9,2.88-7.2.35-.8.52-3,1.2-3.36h2.16c4.08,11.2,8.27,22.54,12.48,33.6,1,2.72,1.9,5.35,2.88,7.92l1,3.12h1.68c.89.58,3,.5,4.32.48v.48a3.7,3.7,0,0,1,.24,1.92c-1.43.48-3.92.24-5.76.24Z"/><path class="cls-1" d="M520,766.44c13.4-.17,21.13,4.28,25,13.44,1.21,2.88.92,5.49,1.68,9.12.69,3.24-.27,7.57-1.2,10.08-3,8.2-8.06,13.42-17,15.6-3.74.91-9.15.15-12-.72-7.85-2.4-13.36-7.44-15.84-15.12-.53-1.65-.3-3-.72-4.8a23.25,23.25,0,0,1,0-8.4l1.44-5a24,24,0,0,1,12.24-12.48C515.25,767.39,518.57,767.36,520,766.44Z"/><path class="cls-1" d="M906.44,779.16h-3.36c-.14-1.69-.86-7.13-1.68-8.16-1.16-1-2.67-.77-4.56-1.2-6.38-1.45-13.14,3.65-10.08,10.56,1.29,2.91,4.71,4.22,7.68,5.52,6.54,2.86,13.14,5.66,14.88,13.44a9.84,9.84,0,0,1-.48,4.56c-2,7-6.41,9.42-13.68,11-3.67.82-12.72-.6-14.4-1.92-.82-1.3-.26-8.85-.24-11h3.36c.22.26,0,0,.24.24.12,1.47,1.09,7.69,1.92,8.16,1.28,1.15,6.15,1.85,8.88,1.2,4.27-1,10-4.3,7.68-10.8-3.33-9.21-19.25-7.77-22.32-18.48-2.9-10.15,8.84-17.93,19-15.6,2.47.57,5.21.18,7,1.44C907,769.42,906.47,777,906.44,779.16Z"/><path class="cls-1" d="M103.4,767.4h19.44V770l-6.72.48V810.6c3.15,1,12.29.26,16.32.24.22-.26,0,0,.24-.24l1.44-8.16h3.12c1,2.94.26,8.08.24,11.52H103.4v-2.4a25.65,25.65,0,0,1,6.48-.72V770.52c-1.69,0-5.06.07-6.24-.72A5.2,5.2,0,0,1,103.4,767.4Z"/><path class="cls-1" d="M160,770.52v40.32l6.48.48v.48a3.7,3.7,0,0,1,.24,1.92c-1.49.5-4.09.24-6,.24H147.32a7.31,7.31,0,0,1-.24-2.16,4.89,4.89,0,0,1,2.64-.48c.78-.5,3-.47,4.08-.48V770.52l-6.48-.48v-.48c-.42-.61-.15-1.49,0-2.16h19.2a6.7,6.7,0,0,1,.24,2.16c-.19.25-.08.07-.24.48h-2.16C163.5,770.6,161.31,770.53,160,770.52Z"/><path class="cls-1" d="M184,810.84V770.52l-6.48-.48v-.48c-.42-.61-.15-1.49,0-2.16H198c1.35.79,3.71.24,5.28.72a17.67,17.67,0,0,1,5.28,2.64c3,2.28,3.67,9.14,1.44,12.72-1.41,2.27-4.06,3.74-6.72,4.8v.24c10.14,1.19,15.41,15.65,6.48,22.08-6.58,4.75-20.93,3.48-32.16,3.36a7.31,7.31,0,0,1-.24-2.16,4.89,4.89,0,0,1,2.64-.48C180.74,810.82,183,810.85,184,810.84Z"/><path class="cls-1" d="M267.56,814H255.8c-1-2.3-2.39-4.53-3.36-6.72-2.9-6.6-5.22-15-14.88-14.88v18.48l7,.48a4.18,4.18,0,0,1,.48,2.4c-1.49.5-4.09.24-6,.24H224.84a7.31,7.31,0,0,1-.24-2.16,4.89,4.89,0,0,1,2.64-.48c.78-.5,3-.47,4.08-.48V770.52l-6.48-.48v-.48c-.42-.61-.15-1.49,0-2.16H245c1,.57,2.63.17,3.84.48a20.18,20.18,0,0,1,6.72,2.64c4.69,3.4,6.29,13.21,1,17.28a21.08,21.08,0,0,1-3.6,2.4c-1.26.58-2.79.65-3.84,1.44h.48c1,1.37,2.82,2.18,3.84,3.6,2.25,3.12,3.77,7,5.76,10.32,1.08,1.77,1.19,5.11,3.84,5.28,1.07.65,3.27,0,4.32.72A5.07,5.07,0,0,1,267.56,814Z"/><path class="cls-1" d="M373.4,814H361.64c-1-2.3-2.39-4.53-3.36-6.72-2.9-6.6-5.22-15-14.88-14.88v18.48l7,.48a4.18,4.18,0,0,1,.48,2.4c-1.49.5-4.09.24-6,.24H330.68a7.31,7.31,0,0,1-.24-2.16,4.89,4.89,0,0,1,2.64-.48c.78-.5,3-.47,4.08-.48V770.52l-6.48-.48v-.48c-.42-.61-.15-1.49,0-2.16h20.16c1,.57,2.63.17,3.84.48a20.18,20.18,0,0,1,6.72,2.64c4.69,3.4,6.29,13.21,1,17.28a21.08,21.08,0,0,1-3.6,2.4c-1.26.58-2.79.65-3.84,1.44h.48c1,1.37,2.82,2.18,3.84,3.6,2.25,3.12,3.77,7,5.76,10.32,1.08,1.77,1.19,5.11,3.84,5.28,1.07.65,3.27,0,4.32.72A5.07,5.07,0,0,1,373.4,814Z"/><path class="cls-1" d="M379.64,767.4h19a7.68,7.68,0,0,1,.24,2.4h-.24V770a26,26,0,0,0-5.52.48v.24c1.66,1.82,2.29,4.56,3.6,6.72,2.57,4.23,5.23,8.67,7.44,13.2h.24v-.24c2.16-2.2,3.16-5.71,4.8-8.4,2.07-3.38,5.46-7.7,6.72-11.52h-.48c-1.19-.72-3.63,0-4.8-.72a5.2,5.2,0,0,1-.24-2.4h15.12v2.4h-.24V770c-1.67,0-4.48,0-5.52.72-2.65,2.71-4,7-6,10.32s-3.74,6.55-5.76,9.84A27.14,27.14,0,0,0,405.8,794v16.8l6.24.48a4.18,4.18,0,0,1,.48,2.4c-1.49.5-4.09.24-6,.24H393.08v-2.4a27.33,27.33,0,0,1,6.48-.72V794a29.64,29.64,0,0,0-2.4-3.6c-2.14-3.5-3.92-7.16-6-10.56-1.39-2.27-3.69-9.31-6.72-9.36-.95-.61-3.42-.5-4.8-.48Z"/><path class="cls-1" d="M490,767.4v11.52a10.66,10.66,0,0,1-3.12.24c-.21-.26,0,0-.24-.24l-1.44-8.16h-15.6v18.48h9.6l.72-6h2.64V798.6H480c0-1.62-.16-4.92-1-6v-.24h-9.36v18.48l6.24.48a8.36,8.36,0,0,1,.24,2.64h-19.2a7.31,7.31,0,0,1-.24-2.16,4.89,4.89,0,0,1,2.64-.48c.78-.5,3-.47,4.08-.48V770.52l-6.48-.48v-.48a3.89,3.89,0,0,1-.24-1.92c2.71-.89,7.37-.24,10.56-.24Z"/><path class="cls-1" d="M600.44,814H588.68c-1-2.3-2.39-4.53-3.36-6.72-2.9-6.6-5.22-15-14.88-14.88v18.48l7,.48a4.18,4.18,0,0,1,.48,2.4c-1.49.5-4.09.24-6,.24H557.72a7.31,7.31,0,0,1-.24-2.16,4.89,4.89,0,0,1,2.64-.48c.78-.5,3-.47,4.08-.48V770.52l-6.48-.48v-.48c-.42-.61-.15-1.49,0-2.16h20.16c1,.57,2.63.17,3.84.48a20.18,20.18,0,0,1,6.72,2.64c4.69,3.4,6.29,13.21,1,17.28a21.08,21.08,0,0,1-3.6,2.4c-1.26.58-2.79.65-3.84,1.44h.48c1,1.37,2.82,2.18,3.84,3.6,2.25,3.12,3.77,7,5.76,10.32,1.08,1.77,1.19,5.11,3.84,5.28,1.07.65,3.27,0,4.32.72A5.07,5.07,0,0,1,600.44,814Z"/><path class="cls-1" d="M644.36,793.08v17.76l7,.48a4.18,4.18,0,0,1,.48,2.4c-1.49.5-4.09.24-6,.24H631.64a7.31,7.31,0,0,1-.24-2.16,4.89,4.89,0,0,1,2.64-.48c.78-.5,3-.47,4.08-.48V770.52l-6.48-.48v-.48c-.42-.61-.15-1.49,0-2.16h21.6c1.29.77,3.54.26,5,.72a14.3,14.3,0,0,1,8.16,5.76,15.3,15.3,0,0,1,1.2,3.12c2.87,10.11-6.35,15.42-13.2,17C650.86,794.89,647.6,793.5,644.36,793.08Z"/><path class="cls-1" d="M678.2,767.4h19.44V770l-6.72.48V810.6c3.15,1,12.29.26,16.32.24.22-.26,0,0,.24-.24l1.44-8.16H712c1,2.94.26,8.08.24,11.52H678.2v-2.4a25.65,25.65,0,0,1,6.48-.72V770.52c-1.69,0-5.06.07-6.24-.72A5.2,5.2,0,0,1,678.2,767.4Z"/><path class="cls-1" d="M775.64,767.4h12.72c1.29,2.08,3.15,3.84,4.56,5.76,4.18,5.69,8.64,11.14,12.72,16.8,2,2.72,4.09,5.26,6,7.92.79,1.1,1.3,2.35,2.4,3.12V770.76c-1.61,0-4.45,0-5.52-.72a5.2,5.2,0,0,1-.24-2.4c3-1,11.35-.26,15.12-.24a8.36,8.36,0,0,1,.24,2.64h-.24v.24c-1.48,0-4.49,0-5.52.72-.91,1.47-.24,9.59-.24,12v31.44h-.48c-1.55.84-2-.82-2.64-1.68-1.68-2.32-3.55-4.56-5.28-7-5.3-7.38-11.2-14.39-16.56-21.84-1.85-2.57-5.66-5.87-6.72-8.88h-.24V810.6c1.46,0,4.49,0,5.52.72a5.07,5.07,0,0,1,.24,2.4c-3,1-11.54.26-15.36.24v-2.64h.24v-.24l5.76-.48V770.76l-6.48-.48Z"/><path class="cls-1" d="M831.56,767.4h38.88c1,2.94.26,8.08.24,11.52h-.48a5.7,5.7,0,0,1-2.64.24l-.24-.72c-.76-1.2-1.31-6-1.44-7.68H854.12v40.08l7,.48a8.36,8.36,0,0,1,.24,2.64H840.68v-2.4a10.06,10.06,0,0,1,2.88-.24c.81-.52,3.22-.47,4.32-.48V770.76H836.12l-1.2,7.92a6.2,6.2,0,0,1-3.12.48C830.8,776.16,831.54,770.91,831.56,767.4Z"/><path class="cls-2" d="M520.76,769.56c-1.26.78-3.27.57-4.56,1.2a18.25,18.25,0,0,0-8.88,10.8c-3.92,12,2.3,24.39,9.84,28.32,2,1,5.53,2.75,9.12,1.92a19.24,19.24,0,0,0,7-2.64c5.57-4,8.86-16.17,5.76-25.68C536.39,775.45,531.65,769.44,520.76,769.56Z"/><path class="cls-2" d="M190.28,770.76v17c7.73.16,16.57-1.77,14.4-10.32-.35-1.41-.26-2.34-1-3.36C201.45,770.78,196.06,770.64,190.28,770.76Z"/><path class="cls-2" d="M237.56,770.76v18.48a3.51,3.51,0,0,0,1,.24c1.57-.93,4.72.24,6.72-.24,2.49-.59,5-1.56,6.24-3.36a10.88,10.88,0,0,0,1.44-3.36,11,11,0,0,0-.48-5.28C250.39,771.47,245.5,770.64,237.56,770.76Z"/><path class="cls-2" d="M343.4,770.76v18.48a3.51,3.51,0,0,0,1,.24c1.57-.93,4.72.24,6.72-.24,2.49-.59,5-1.56,6.24-3.36a10.88,10.88,0,0,0,1.44-3.36,11,11,0,0,0-.48-5.28C356.23,771.47,351.34,770.64,343.4,770.76Z"/><path class="cls-2" d="M570.44,770.76v18.48a3.51,3.51,0,0,0,1,.24c1.57-.93,4.72.24,6.72-.24,2.49-.59,5-1.56,6.24-3.36a10.88,10.88,0,0,0,1.44-3.36,11,11,0,0,0-.48-5.28C583.27,771.47,578.38,770.64,570.44,770.76Z"/><path class="cls-2" d="M644.36,770.76v20.16c8.83.15,14.14-.65,16.08-7.44a10.87,10.87,0,0,0,.24-5c-.45-1.78-.53-2.84-1.44-4.08C656.68,770.85,650.57,770.65,644.36,770.76Z"/><path class="cls-2" d="M289.64,793.8h13l.24-.72c-.94-1.25-1-3-1.68-4.56-1.54-3.76-2.81-8-4.56-11.76h-.48a12.84,12.84,0,0,1-1.44,3.6c-1.07,2.55-1.57,4.86-2.64,7.44C291.27,789.67,290,791.58,289.64,793.8Z"/><path class="cls-2" d="M735.8,793.8h13l.24-.72c-.94-1.25-1-3-1.68-4.56-1.54-3.76-2.81-8-4.56-11.76h-.48a12.84,12.84,0,0,1-1.44,3.6c-1.07,2.55-1.57,4.86-2.64,7.44C737.43,789.67,736.19,791.58,735.8,793.8Z"/><path class="cls-2" d="M190.28,790.44V810.6a17.59,17.59,0,0,0,4.8.24c.8-.47,2.24,0,3.36-.24,2.53-.58,5.61-1.34,7-3.12a11.27,11.27,0,0,0,1.68-3.36,10.84,10.84,0,0,0-.24-5.52C204.84,791.48,199.47,790.3,190.28,790.44Z"/></svg>