<svg id="图层_1" data-name="图层 1" xmlns="http://www.w3.org/2000/svg" viewBox="0 0 96 21.6"><defs><style>.cls-1{fill:#23170c;}.cls-1,.cls-2,.cls-3{fill-rule:evenodd;}.cls-2{fill:#fff;}.cls-3{fill:none;}</style></defs><title>logo-sm</title><path class="cls-1" d="M64.68,0l.38,0V0C65,.07,65,.13,65,.26l1,0V.62a3.18,3.18,0,0,1,.44,0c0,.05,0,.16,0,.24H66v.38h0a4,4,0,0,0-.93,0v.13l1.15,0v.25L65,1.56v.17l1.36,0V2h-3V1.71l1.32,0V1.56l-1.09,0V1.33l1.09,0V1.22c-.33,0-.71,0-1,0V1l1,0V.86H63.29a1,1,0,0,1,0-.26c.16.05.39,0,.58,0a4.3,4.3,0,0,0,.81,0V.47a4.87,4.87,0,0,1-1,0s0-.17,0-.25l1,0A2.51,2.51,0,0,0,64.68,0Z" transform="translate(0 0.04)"/><path class="cls-1" d="M73,.43V.94h-.26V.66H71.59V.92a1.19,1.19,0,0,1-.28,0v0h0c0-.07,0-.17,0-.21l-.15.17h0v0c-.18-.12-.29-.31-.49-.41a2.41,2.41,0,0,1-.41.64h.15a3,3,0,0,0,.9,0c0,.33,0,.76,0,1.09h-.83v.49a.9.9,0,0,0,.49-.17.25.25,0,0,1-.11-.15c.06,0,.2-.11.24-.08a1.39,1.39,0,0,1,.38.51.5.5,0,0,0-.21.13l0,0L71,2.69l-.56.22c-.1,0-.19.13-.3.17,0-.14-.11-.18-.15-.3s.13,0,.13-.17a1.09,1.09,0,0,0,0-.41c0-.34,0-.68,0-1h0v0L70,1.33v0a.58.58,0,0,1-.17-.23,1.86,1.86,0,0,0,.51-.69c.06-.11.08-.33.22-.36s.18.07.27.11-.08.08-.08.13a2.16,2.16,0,0,0,.51.34V.43h.77v0a1.28,1.28,0,0,1-.17-.3,2.65,2.65,0,0,1,.3-.11l.15.34-.26.09v0h.26A1.79,1.79,0,0,1,73,.43Z" transform="translate(0 0.04)"/><path class="cls-1" d="M59.62.19c0,1,0,2,0,3h-.3V3H57.14v.17h-.29c0-.65,0-1.37,0-2.06a5.83,5.83,0,0,0,0-.94Z" transform="translate(0 0.04)"/><path class="cls-1" d="M20,2.22a2.34,2.34,0,0,1,.75,0,2.34,2.34,0,0,1,1.54,1.88,1.84,1.84,0,0,1,.53,0c.6.18,1.07,1,1.3,1.6.08.2.07.39.15.6s.16.19.22.28.27.42.4.62a11.63,11.63,0,0,1,1.41,2.82c.08.27,0,.57.06.88a2.61,2.61,0,0,1-.25,1.82,1.39,1.39,0,0,1-.66.34,3.16,3.16,0,0,1-1.75.26,6.45,6.45,0,0,1-.94-.28,2.46,2.46,0,0,0-.45-.24c-.09,0-.42.14-.66.09a4.82,4.82,0,0,0-1.94-.11h-.32c-.41.09-.85.05-1.24.15a12.1,12.1,0,0,0-1.82.56,5.75,5.75,0,0,0-2.49,2.18,4.71,4.71,0,0,0-.56,1v.22c0,.06-.12.08-.15.15a7.55,7.55,0,0,0-.25,1.24,13.56,13.56,0,0,0-.3,3.22h-.79a13.07,13.07,0,0,1,.11-2.69l.06-.77a3.54,3.54,0,0,0,0-1.52s-.09-.05-.13-.08a9.05,9.05,0,0,0-.74-.65c-.41-.29-.82-.58-1.26-.85s-.74-.3-1.11-.49A8.19,8.19,0,0,0,7.92,14a5.22,5.22,0,0,0-3,0l-1.22.42a6.37,6.37,0,0,1-.89.17,2.5,2.5,0,0,1-1.33-.19,2.09,2.09,0,0,1-.91-.68c-.07-.09-.21-.15-.26-.26a.46.46,0,0,1,0-.26,3.26,3.26,0,0,1-.13-1.64v-.3a3.28,3.28,0,0,1,.28-1c.09-.15.26-.27.32-.43a.91.91,0,0,1-.28-.77C-.1,9-.06,8.11.11,7.59a1.49,1.49,0,0,1,.51-.75c.16-.1.33-.12.43-.27s.08-.4.15-.65c.13-.47.39-.9,1-.89a1.61,1.61,0,0,1,.58-1.29,1.53,1.53,0,0,1,.32-.13l.23,0,0-.08a.68.68,0,0,1,.35-.2c.24-.05.36.15.61.15A4.29,4.29,0,0,1,5,2.8c.12-.07.39-.12.43-.26s0-.33,0-.42a.77.77,0,0,1,.49-.6l.22,0c.12-.05.33-.18.47-.26C7,1,7.27.57,7.71.38S9.12.62,9.54.73s.93,0,1.28.15a1.87,1.87,0,0,1,.62.6,3.3,3.3,0,0,1,.81,1.21c.07.26,0,.58,0,.86s0,.82,0,1.18a2.08,2.08,0,0,1,0,.7c0,.08.09.19.12.28h0V5.39c.06-.1,0-.29,0-.41a9.62,9.62,0,0,0,.08-1.9c0-.24-.06-.68.05-.83s.16-.1.23-.15l.38-.33c.52-.51.75-1,1.56-1.21a1.38,1.38,0,0,1,.66-.09c.53.12.84.36,1.33.47a1.57,1.57,0,0,0,.49,0,2.47,2.47,0,0,1,.77.11,2.5,2.5,0,0,1,.55.25,1.5,1.5,0,0,0,.38.26C19.43,1.68,20,1.7,20,2.22Z" transform="translate(0 0.04)"/><path class="cls-2" d="M57.14.43V2.8h2.18V.43Z" transform="translate(0 0.04)"/><path class="cls-2" d="M65.68.64V.47H65a.32.32,0,0,0,0,.15A2.67,2.67,0,0,0,65.68.64Z" transform="translate(0 0.04)"/><path class="cls-1" d="M58.36,1.13v.13l.9,0v.21l-.9,0v.13h.7V2.67H57.38V1.56h.72V1.43l-.89,0V1.24l.89,0V1.13h-.64v0a1,1,0,0,0,0-.55H59v0a1.14,1.14,0,0,0,0,.55Z" transform="translate(0 0.04)"/><path class="cls-1" d="M70.72.68c.06,0,0,0,.06.07a.62.62,0,0,1,.11.26h0a.48.48,0,0,1-.23.06,1,1,0,0,0-.11-.3h0S70.67.72,70.72.68Z" transform="translate(0 0.04)"/><path class="cls-2" d="M57.76.75V1h1V.75Z" transform="translate(0 0.04)"/><path class="cls-2" d="M7.92.83c-.08.06-.14,0-.17.15a4.2,4.2,0,0,1,.3.82c.13.31.22.65.36,1a1.79,1.79,0,0,1,.23.73.23.23,0,0,1-.1,0s-.06,0-.11,0l-.9-2.4h0v0a.31.31,0,0,0-.15.2c.11.12.11.33.17.49s.21.65.35,1a2.2,2.2,0,0,1,.21.67.25.25,0,0,1-.19.06,10.62,10.62,0,0,1-.45-1.24,5.85,5.85,0,0,1-.3-.83h0v0l-.19.1a2.69,2.69,0,0,0,.21.52c.13.29.19.56.32.85s.28.47.23.75l-.15,0s0,0,0,0l-.81-2,0,0c-.13,0-.21.15-.32.2S6.08,2,6,2c.24.44.46.91.72,1.35A2,2,0,0,1,7.07,4s0,.06-.09.09-.1,0-.15,0v0c.09.06.07.21,0,.3h0c.12.07.31,0,.43.1s.12.12.21.15a1,1,0,0,1,.75-1c.29-.07.51.14.83.06s.33-.22.54-.28c.49-.13.77.27,1,.43V3.72c.09-.14,0-.44,0-.62.11-.51,0-1.17.11-1.65a1.89,1.89,0,0,0-.28-.17c-.24-.07-.53,0-.81,0l-.53-.11v.28a2.53,2.53,0,0,1,0,1,.83.83,0,0,0-.15,0,4.33,4.33,0,0,1,.3,1.05.28.28,0,0,1-.2.06,5.24,5.24,0,0,1-.25-.79l-.39-1.2C8.41,1.37,8.4,1,8.26.9A.57.57,0,0,0,7.92.83Z" transform="translate(0 0.04)"/><path class="cls-2" d="M65,.86V1h.7V.86Z" transform="translate(0 0.04)"/><path class="cls-2" d="M8.58,1a5.11,5.11,0,0,0,.26.81c0,.13,0,.28.1.37A4.1,4.1,0,0,0,8.86,1,2.33,2.33,0,0,0,8.58,1Z" transform="translate(0 0.04)"/><path class="cls-1" d="M71.53,1h1.23c0,.25,0,.57,0,.82-.29,0-.65,0-1,0v.3l1.11,0a2.33,2.33,0,0,0,0,.79,1.08,1.08,0,0,1,0,.26s-.19,0-.28,0V2.91h-.83v.25h-.25a.37.37,0,0,1,0-.17c.07-.1,0-.4,0-.55Z" transform="translate(0 0.04)"/><path class="cls-2" d="M15,1c-.08.11,0,.41,0,.59V3.1h0s.06,0,.09,0a1.71,1.71,0,0,0,0-.56V1.41a2.62,2.62,0,0,1,0-.4Z" transform="translate(0 0.04)"/><path class="cls-2" d="M15.77,1.07a4.7,4.7,0,0,1,0,1.13v.41c0,.07-.08.1-.17.11s0,0,0,0V2.8c.07.1,0,.22,0,.28h.06c.08-.05.23,0,.34,0a1.8,1.8,0,0,1,1.11.15v0c.14-.57.27-1.15.41-1.73h-.71c-.07-.05-.18,0-.27-.06s-.27-.13-.41-.17V2L16,2s-.07,0-.15,0a2.53,2.53,0,0,1-.07-1Z" transform="translate(0 0.04)"/><path class="cls-2" d="M14.68,3.1V1.69c0-.15.05-.45,0-.56a8.59,8.59,0,0,1,0,1.44.24.24,0,0,0-.09.06l-.1,0s0-.14-.09-.17-.1,0-.13-.07.09-.67,0-.87a4.14,4.14,0,0,1,0,.62.16.16,0,0,0-.08.06l-.11,0c-.05-.07,0-.25-.09-.3-.05.16-.43.47-.57.58s-.19.07-.22.12V3.66h0A1.84,1.84,0,0,1,14.68,3.1Z" transform="translate(0 0.04)"/><path class="cls-2" d="M71.78,1.2v.34h.71V1.2Z" transform="translate(0 0.04)"/><path class="cls-2" d="M70.42,1.33v.21H71V1.33Z" transform="translate(0 0.04)"/><path class="cls-2" d="M17.71,1.45c-.07.67-.39,1.29-.42,2h0v0l0,0a2.47,2.47,0,0,0,.19-.58L18,1.52Z" transform="translate(0 0.04)"/><path class="cls-2" d="M18.2,1.63l-.32,1h0v0a3.83,3.83,0,0,0,.28-.69C18.22,1.79,18.27,1.67,18.2,1.63Z" transform="translate(0 0.04)"/><path class="cls-2" d="M11,1.71c0,.81-.06,1.63-.08,2.44h0V4c.1-.16,0-.42.08-.62s.09-.65.15-.94l0-.28c0-.06.1-.07.13-.13C11.2,2,11.14,1.78,11,1.71Z" transform="translate(0 0.04)"/><path class="cls-2" d="M57.64,1.73v.75h1.17V1.73Z" transform="translate(0 0.04)"/><path class="cls-2" d="M70.42,1.75V2A2.12,2.12,0,0,0,71,2V1.75Z" transform="translate(0 0.04)"/><path class="cls-2" d="M18.46,1.82a1.74,1.74,0,0,1-.17.45c-.19.43-.32.88-.49,1.3a5.43,5.43,0,0,0-.19.58c.13.09.35,0,.53.06a3.8,3.8,0,0,1,.51.13,3,3,0,0,1,.85.58c.21.27.11.61.6.62.17-.27.43-.48.62-.73s.13-.26.32-.28c0,0,.07.07.09,0a3,3,0,0,1,.34-.26c.07,0,.21,0,.28-.09s0-.07,0-.12-.13-.43-.24-.6a1.41,1.41,0,0,0-1.68-.73c-.21.34-.44.67-.67,1s-.2.36-.44.39l-.11,0a.48.48,0,0,1-.11-.26,10.07,10.07,0,0,0,.73-1.07.93.93,0,0,0,.23-.56A6.41,6.41,0,0,0,18.74,2C18.64,1.93,18.56,1.85,18.46,1.82Z" transform="translate(0 0.04)"/><path class="cls-1" d="M57.81,1.84h.85v.51h-.85Z" transform="translate(0 0.04)"/><path class="cls-1" d="M9.69,1.9l.15,0c.05.17.11,1,0,1.05a.18.18,0,0,1-.11,0A1.52,1.52,0,0,1,9.69,1.9Z" transform="translate(0 0.04)"/><path class="cls-2" d="M58,2v.17h.4V2Z" transform="translate(0 0.04)"/><path class="cls-1" d="M66,3.16h-.3V3H64.06a.44.44,0,0,0,0,.17h-.3v0c.13-.21-.06-.91,0-1a.22.22,0,0,1,.15,0,1.19,1.19,0,0,0,.47,0h1.15a2,2,0,0,1,.43,0h0A3.14,3.14,0,0,0,66,3.16Z" transform="translate(0 0.04)"/><path class="cls-2" d="M11.46,2.25c-.09.69-.18,1.39-.28,2.09h.05v0l.27-1.58c.07,0,.07-.06.17-.07s0,0,.05,0v0C11.61,2.53,11.59,2.34,11.46,2.25Z" transform="translate(0 0.04)"/><path class="cls-2" d="M71.78,2.29v.38h.83V2.29Z" transform="translate(0 0.04)"/><path class="cls-2" d="M64,2.31v.15h1.64V2.31Z" transform="translate(0 0.04)"/><path class="cls-2" d="M5.87,2.35v.32a1.6,1.6,0,0,1,.28.43c.15.24.35.47.51.71,0,.07.06.14.13.19a11.35,11.35,0,0,0-.64-1.13A2.87,2.87,0,0,0,5.87,2.35Z" transform="translate(0 0.04)"/><path class="cls-1" d="M10.18,2.46l.11,0,0,.09c.06.11-.08.49-.13.59h-.15c-.1-.16,0-.42,0-.64A.24.24,0,0,0,10.18,2.46Z" transform="translate(0 0.04)"/><path class="cls-3" d="M17.86,2.63v0h0S17.88,2.65,17.86,2.63Z" transform="translate(0 0.04)"/><path class="cls-2" d="M64,2.65V2.8h1.64V2.65Z" transform="translate(0 0.04)"/><path class="cls-2" d="M11.74,2.8a13.87,13.87,0,0,1-.28,1.73l.06,0,.15-1s.09,0,.11-.08A4.05,4.05,0,0,0,11.74,2.8Z" transform="translate(0 0.04)"/><path class="cls-2" d="M15.32,3.08h.09v0A.13.13,0,0,1,15.34,3h0Z" transform="translate(0 0.04)"/><path class="cls-2" d="M5.49,3.08c-.1.09-.27.12-.37.21-.34.33-.55,1-1.26.56v0a3.07,3.07,0,0,1,.35.51c.2.3.42.62.61.92.06.09.07.2.13.28.09-.07.22,0,.28,0a1.58,1.58,0,0,0,.09-.26,1.6,1.6,0,0,1,.42-.57,1.9,1.9,0,0,1,.43-.26c.09,0,.23,0,.28-.09a3.82,3.82,0,0,1-.35-.51c-.1-.15-.23-.3-.34-.45S5.65,3.11,5.49,3.08Z" transform="translate(0 0.04)"/><path class="cls-2" d="M16.13,3.53a4.1,4.1,0,0,1-.21.92c-.05.17,0,.32-.21.34,0,0-.05,0-.07-.09s0-.22,0-.32c.08-.27.15-.55.22-.83h-.24c-.21.13-1.19,0-1.51.09-1.07.28-1.2,1.48-1.2,2.82h0s.05,0,.13,0a.94.94,0,0,1,.09.12c0,.08,0,.17,0,.22.11-.12.08-.34.08-.58V4.9s0,0,0-.05l.06,0c.07,0,.12,0,.15.07s0,.27,0,.38V6.2a1.21,1.21,0,0,0,0,.39,5.08,5.08,0,0,1,0-.88.29.29,0,0,1,.17,0,2,2,0,0,1,.07.83h0v0a1.91,1.91,0,0,1,1.3.15c.14-.41.27-.82.41-1.24,0,0,.1,0,.19,0a.41.41,0,0,1,0,.21,2.33,2.33,0,0,0-.11.28.25.25,0,0,1,.17,0c.1.22-.13.57-.06.73l.26.08c.16.1.28.29.47.35s.28,0,.4,0,.3.18.39.15a3.63,3.63,0,0,0,.27-.52c.22-.35.43-.73.64-1.09.1-.15.15-.45.32-.51s.16,0,.17.15a4.11,4.11,0,0,0-.27.51,9.09,9.09,0,0,0-.49.86h0v0c.1-.11.25-.16.27.06-.22.23-.38.68-.64.86a1.39,1.39,0,0,0,.73.68,3.41,3.41,0,0,1,.38-.38.35.35,0,0,1,.13,0v0c-.11-.18.17-.42.24-.52A13.32,13.32,0,0,0,19.89,6c-.22,0-.31-.14-.47-.21a1.58,1.58,0,0,1-.28.51c-.17.28-.31.58-.47.86s-.11.4-.36.4a.21.21,0,0,1-.06-.17A2.34,2.34,0,0,0,18.5,7a6.67,6.67,0,0,1,.81-1.3c-.11-.1-.08-.27-.17-.39S19,5.11,19,5.09a2.08,2.08,0,0,0-.73-.36l-.7-.07c-.13,0-.28-.2-.34-.21a1.75,1.75,0,0,0-.17.47c-.14.33-.29.71-.43,1-.06.15-.07.43-.23.49s-.16,0-.17-.15a3.29,3.29,0,0,0,.25-.69,8.78,8.78,0,0,0,.51-1.32c.06,0,.13,0,.15-.09s-.06-.34-.15-.47S16.45,3.52,16.13,3.53Z" transform="translate(0 0.04)"/><path class="cls-2" d="M9.71,4c-.07,0,0,0-.06,0s.09.3.15.45c.13.36.24.77.36,1.13,0,.13.16.45,0,.49s-.21-.3-.26-.42c-.17-.49-.35-1-.47-1.54h0l-.06,0a3.91,3.91,0,0,1,.23,1.11.25.25,0,0,1-.17.07l0,0c0-.13-.09-.29-.13-.42s0-.51-.15-.67a1.15,1.15,0,0,0-.42,0,.55.55,0,0,0-.47,0,.86.86,0,0,0-.13.2C8,4.56,8,4.73,8,4.88s-.17.2-.27.3c-.47,0-.56-.27-1.07-.28v0a5.16,5.16,0,0,1,.47.94c.34.65.68,1.32,1,2,.17,0,.4-.15.6,0S8.86,8,9,8c0-.74.52-.91,1.11-1,.21,0,.79.07.9,0a.87.87,0,0,0-.09-.36s-.07.09-.12.06-.22-.45-.3-.64c-.17-.41-.3-.86-.47-1.28A3.74,3.74,0,0,1,9.71,4Z" transform="translate(0 0.04)"/><path class="cls-2" d="M10,4c.26.73.52,1.47.79,2.2h0c-.11-.42-.21-.84-.32-1.26S10.42,4.19,10,4Z" transform="translate(0 0.04)"/><path class="cls-2" d="M4.85,5.88V5.77h0c-.24.2-.39-.2-.47-.32l-.66-1a1.59,1.59,0,0,0-.23-.36H3.18c-.07,0-.17.06-.23.12a1.55,1.55,0,0,0-.26,1c.22.08.48.52.73.66s.35-.05.38.24c0,.05,0,.1,0,.17l-.15.11a.88.88,0,0,1-.47-.11v0a.32.32,0,0,1,.15.24c-.06.06-.06.08-.19.08-.22-.23-.42-.47-.64-.71s-.33-.26-.39-.42h0v0a2.2,2.2,0,0,1,.45.51c.13.17.32.31.45.47s.16.28.3.32A2.52,2.52,0,0,1,4.85,5.88Z" transform="translate(0 0.04)"/><path class="cls-2" d="M11.8,4.43c0,.11-.05.28,0,.34l.06.06v-.1C11.81,4.66,11.84,4.49,11.8,4.43Z" transform="translate(0 0.04)"/><path class="cls-2" d="M10.69,4.6a4.14,4.14,0,0,0,.19.79c.17.54.26,1.09.39,1.62l.08,0V7a2.16,2.16,0,0,1-.12-.53c-.12-.39-.21-.82-.32-1.2C10.85,5,10.84,4.71,10.69,4.6Z" transform="translate(0 0.04)"/><path class="cls-2" d="M22.88,8.81l0,.21a.24.24,0,0,0,.1,0c.09-.06.25,0,.37,0s.56,0,.85,0a2,2,0,0,1,.6,0,.3.3,0,0,1,.06.15.34.34,0,0,1-.06.06c-.11.08-.29,0-.45.05l-1.43.08,0,.49h0v0a3.12,3.12,0,0,1,.71.1c.31.07.61.07.89.13a7.11,7.11,0,0,1,1,.15.46.46,0,0,1,0,.15,3.16,3.16,0,0,1-1.37-.11l-.3,0c-.12,0-.42-.12-.53-.06a3,3,0,0,1,.75.15c.44.11.87.16,1.3.25a.3.3,0,0,1,0,.18.29.29,0,0,1-.21.06,3.15,3.15,0,0,0-.64-.13c-.31-.08-.64-.1-1-.19a3.15,3.15,0,0,0-.64-.13A3.24,3.24,0,0,1,23,12a2.21,2.21,0,0,1-.32.29h-.06l0,.18a3,3,0,0,0,2.58.23c.28-.1.55-.12.66-.41a4.62,4.62,0,0,0,0-1.66c0-.21,0-.36-.06-.54a11.68,11.68,0,0,0-1.3-2.54c-.21-.32-.5-.63-.67-1,0-.16-.07-.32-.1-.48-.18-.48-.58-1.34-1.07-1.47a1.27,1.27,0,0,0-1.26.47c0,.14,0,.28,0,.43a3,3,0,0,1-.15.45h0a2.9,2.9,0,0,1,.49-.67c.11-.07.18,0,.17.17a2.54,2.54,0,0,0-.36.54c-.14.2-.32.4-.45.62h0v0a1.62,1.62,0,0,0,.32-.41c.16-.21.36-.39.52-.6s.14-.3.34-.32a.21.21,0,0,1,.08.17l-.13.17h0c.05-.09.13-.21.25-.23a.1.1,0,0,1,.11.06.18.18,0,0,1,0,.11,7.77,7.77,0,0,0-.87,1c-.11.13-.29.22-.35.4a.12.12,0,0,1,.05,0h0V7c.32-.21.56-.55.87-.79.14-.1.23-.32.43-.36a.09.09,0,0,1,.08,0,.17.17,0,0,1,0,.15c-.16.15-.3.34-.47.47a1.83,1.83,0,0,0-.39.34h0a1.41,1.41,0,0,1,.68-.42.34.34,0,0,1,.06.17,7.34,7.34,0,0,1-1.09.81v0h0s0,0,.06,0A3.59,3.59,0,0,1,22.45,7c.07-.06.17-.19.26-.15s.1.06.1.17a10.44,10.44,0,0,1-.83.66v0a2.52,2.52,0,0,1,.73.51c0,.06.05.14.1.19s.31,0,.47-.08a2.9,2.9,0,0,1,1.09-.17c.05.11,0,.22-.13.23s-.43,0-.57.13a1.39,1.39,0,0,1,.29,0,.25.25,0,0,1,.07.17A2.75,2.75,0,0,1,22.88,8.81Z" transform="translate(0 0.04)"/><path class="cls-2" d="M11.08,4.88a17.78,17.78,0,0,1,.57,2.26l.17.09v0a1.93,1.93,0,0,1-.1-.5c-.12-.38-.21-.8-.32-1.17S11.32,5,11.08,4.88Z" transform="translate(0 0.04)"/><path class="cls-2" d="M6.34,4.94,6.23,5V5c.15.06.34.62.43.79l.79,1.54a3.23,3.23,0,0,0,.36.72v0L7.9,8c-.32-.73-.72-1.46-1.09-2.16A4.65,4.65,0,0,0,6.34,4.94Z" transform="translate(0 0.04)"/><path class="cls-2" d="M20.87,5c-.14.24-.44.42-.53.69h0v0h0v0a3.22,3.22,0,0,0,.32-.32.71.71,0,0,1,.15.08V5.18A.3.3,0,0,0,20.87,5Z" transform="translate(0 0.04)"/><path class="cls-2" d="M6,5.13a1.2,1.2,0,0,0-.36,1c0,.18.21.3.3.45.2.33.28.73.49,1a1,1,0,0,0,.21.25c.18.13.29.07.3.39-.42.39-.83-.23-1-.54-.29-.46-.53-1.7-1.39-1.34a2.14,2.14,0,0,0-.49.34,1.25,1.25,0,0,0-.47.47c.33.22.58.62.89.85A12.92,12.92,0,0,1,5.66,9.15c.1.11.61.65.7.62.25-.08.24-.3.36-.51a3.69,3.69,0,0,1,.56-.68c.1-.11.27-.2.32-.35a3.46,3.46,0,0,1-.36-.72C7,7,6.68,6.41,6.4,5.88A4,4,0,0,0,6,5.13Z" transform="translate(0 0.04)"/><path class="cls-2" d="M11.63,5.32,12,6.82c0,.18,0,.44.1.58l-.06-.64V6.31c0-.07,0-.23,0-.32A1.28,1.28,0,0,0,11.63,5.32Z" transform="translate(0 0.04)"/><path class="cls-1" d="M53.2,5.37c2.81,0,4.23,1.11,5,3.08a6,6,0,0,1,.3,3,9.46,9.46,0,0,1-.4,1.42,4.93,4.93,0,0,1-2.44,2.43,7.36,7.36,0,0,1-1.23.35,5.31,5.31,0,0,1-2.42-.2A4.74,4.74,0,0,1,48.76,12a5.49,5.49,0,0,1-.11-2.4A7.79,7.79,0,0,1,49,8.45,4.94,4.94,0,0,1,51.7,5.69a7.53,7.53,0,0,1,1-.26C52.82,5.39,53.07,5.45,53.2,5.37Z" transform="translate(0 0.04)"/><path class="cls-1" d="M35,10.24,35.17,9a1.93,1.93,0,0,1,.49,0s0,0,0,0a21.25,21.25,0,0,1,0,2.4c0,.23.07.7,0,.85s-.36,0-.49,0a.32.32,0,0,1,0-.21c-.13-.22,0-.9-.18-1.09s-.4,0-.55,0H33a3.9,3.9,0,0,0,0,1.15v2.76h0v0l1,.11c.15,0,.32,0,.38.08a.86.86,0,0,1,0,.45,5.25,5.25,0,0,1-1.26,0H30.28a1.23,1.23,0,0,1,0-.49.25.25,0,0,1,.17,0,6,6,0,0,1,.92-.11c.13,0,.23,0,.29-.06s0-.46,0-.62V7a4.57,4.57,0,0,0,0-.75h-.14c-.11-.06-.29,0-.43,0a4.78,4.78,0,0,0-.77-.08,1.28,1.28,0,0,1,0-.5,1.72,1.72,0,0,1,.62,0h6.38a2.25,2.25,0,0,1,0,.75V8a2,2,0,0,1-.66,0,.22.22,0,0,1,0-.13c-.08-.13,0-.34-.08-.51a5,5,0,0,1-.19-1.11,2.85,2.85,0,0,0-1,0H33a3.9,3.9,0,0,0,0,1.15v2.8l.06,0c.1.07.39,0,.53,0A12.07,12.07,0,0,0,35,10.24Z" transform="translate(0 0.04)"/><path class="cls-1" d="M45.52,14.82c.09-.57.19-1.14.29-1.71a1.62,1.62,0,0,1,.67,0,2.06,2.06,0,0,1,0,.72v1.69a2.76,2.76,0,0,1-.71,0H39.33a1.56,1.56,0,0,1,0-.49l0,0h.15a5,5,0,0,1,.91-.11c.13,0,.22,0,.28-.06a1.81,1.81,0,0,0,0-.62V7a4.6,4.6,0,0,0,0-.75h-.15c-.22-.13-1,0-1.19-.15-.06-.08,0-.34,0-.47a4.18,4.18,0,0,1,1.19,0h2.9a1.34,1.34,0,0,1,.05.51h0v0L42,6.24v0a1.79,1.79,0,0,0,0,.62v7.16a4.57,4.57,0,0,0,0,.75Z" transform="translate(0 0.04)"/><path class="cls-1" d="M60.49,5.58h3.87a1.36,1.36,0,0,1,0,.51h0v0a4.43,4.43,0,0,0-.9.1c-.12,0-.23,0-.32,0l0,.06c.88,2.42,1.76,4.85,2.65,7.27l0,0a2.41,2.41,0,0,0,.15-.43c.15-.38.26-.78.42-1.18.28-.68.49-1.41.77-2.11.12-.3.21-.63.34-.94a2.17,2.17,0,0,0,.15-.35c0-.15-.14-.49-.19-.62-.21-.56-.35-1.12-.58-1.66l-.81-.11c-.16,0-.35,0-.47-.07a1.53,1.53,0,0,1,0-.49h.05a4.24,4.24,0,0,1,1,0h1.9a6.05,6.05,0,0,1,1,0v.49h0v0a4.43,4.43,0,0,0-.9.1c-.12,0-.24,0-.32,0l0,.06a3.86,3.86,0,0,1,.28.81c.2.55.36,1.13.57,1.69.3.81.55,1.69.88,2.48.1.26.13.52.23.77a11.21,11.21,0,0,1,.54,1.54l0,0a3.53,3.53,0,0,0,.17-.49c.16-.39.26-.8.43-1.2.51-1.26.92-2.6,1.4-3.87.17-.45.29-.9.47-1.33,0-.08.16-.38.13-.42s0,0-.08,0c-.25-.14-.88,0-1.11-.13-.06-.08,0-.35,0-.49h0a3.53,3.53,0,0,1,.87,0h1.6a5.61,5.61,0,0,1,.83,0v.49h0v0l-1.32.12a3.63,3.63,0,0,0-.17.5c-.17.42-.31.88-.49,1.32-.68,1.66-1.22,3.41-1.9,5.07-.27.66-.46,1.33-.73,2,0,.11-.15.58-.23.62h-.47c-.72-2.08-1.45-4.15-2.18-6.23h0a2,2,0,0,1-.19.52c-.15.36-.26.74-.4,1.09-.44,1.06-.77,2.16-1.2,3.21-.15.36-.26.74-.41,1.09,0,.09,0,.28-.12.32h-.41l0,0a7.1,7.1,0,0,0-.45-1.22c-.29-.7-.49-1.43-.77-2.12-.16-.4-.24-.8-.4-1.2-.66-1.59-1.13-3.3-1.8-4.89l-1-.13c-.14,0-.24,0-.3-.09S60.46,5.66,60.49,5.58Z" transform="translate(0 0.04)"/><path class="cls-1" d="M82.79,8.75a15.23,15.23,0,0,1,0,1.66,15.38,15.38,0,0,1,0,1.67h-.53v0s0-.12,0-.19a8.29,8.29,0,0,0-.15-1.11c-.11-.08-.44,0-.6,0H80v0a4.67,4.67,0,0,0,0,1.07v2a7,7,0,0,0,0,1h3.67l0,0a6.52,6.52,0,0,1,.23-1.26c0-.16,0-.34.09-.45s.47,0,.64,0a2.06,2.06,0,0,1,0,.72v1.67a1.75,1.75,0,0,1-.66,0h-6.7a1.21,1.21,0,0,1-.05-.49.3.3,0,0,1,.18,0,6,6,0,0,1,.91-.11c.14,0,.24,0,.3-.06s0-.47,0-.64V6.29a.31.31,0,0,0-.17,0c-.11-.06-.28,0-.42,0a4.9,4.9,0,0,0-.77-.08,1.26,1.26,0,0,1-.05-.5,1.89,1.89,0,0,1,.64,0h6.51a2,2,0,0,1,0,.75V8a2.05,2.05,0,0,1-.67,0,.39.39,0,0,1,0-.15c-.06-.09,0-.23-.06-.36-.08-.3-.12-.66-.19-1,0-.12,0-.22-.07-.3a3.61,3.61,0,0,0-.94,0H80a3.09,3.09,0,0,0,0,1.11V10a2,2,0,0,0,.66,0h1.48a.34.34,0,0,0,0-.19,8.29,8.29,0,0,0,.15-1.11Z" transform="translate(0 0.04)"/><path class="cls-1" d="M96,15v.53H93.63c-.44-.82-.82-1.71-1.24-2.54-.53-1.07-1-2.08-2.64-2.08v4l1.49.13a1.18,1.18,0,0,1,0,.51,6.37,6.37,0,0,1-1.32,0h-2.9A1.07,1.07,0,0,1,87,15a.25.25,0,0,1,.17,0,6,6,0,0,1,.92-.11c.13,0,.23,0,.29-.06s0-.46,0-.62V7a4.57,4.57,0,0,0,0-.75h-.15c-.1-.06-.28,0-.42,0a4.78,4.78,0,0,0-.77-.08,1.12,1.12,0,0,1,0-.5,4.29,4.29,0,0,1,1.15,0H91l1,.09a4.28,4.28,0,0,1,1.51.53,2.47,2.47,0,0,1,1,2.55,2.17,2.17,0,0,1-.28.68,3.62,3.62,0,0,1-2,1.28c.2.22.52.33.71.58.39.52.67,1.12,1,1.69.1.17.13.35.23.51s.3.52.43.77a2,2,0,0,0,.3.56A6,6,0,0,0,96,15Z" transform="translate(0 0.04)"/><path class="cls-2" d="M20.79,5.6c-.07.2-.3.3-.39.47l0,.13c-.05.09-.12.16-.17.26h0c.16-.11.49,0,.62,0s.13-.19.19-.3h0c-.14.23-.43.06-.45-.17S20.83,5.7,20.79,5.6Z" transform="translate(0 0.04)"/><path class="cls-2" d="M1.84,5.69c0,.13.2.29.3.38a7.87,7.87,0,0,1,.66.75L3,7c0,.06,0,.11,0,.13v0s0,0,0,0c-.07-.21-.32-.35-.45-.52A4.71,4.71,0,0,0,1.84,5.69Z" transform="translate(0 0.04)"/><path class="cls-1" d="M7.34,5.94l.15,0a3,3,0,0,1,.41.89.24.24,0,0,1-.19.07,6,6,0,0,1-.32-.62s-.1-.12-.11-.17S7.31,6,7.34,5.94Z" transform="translate(0 0.04)"/><path class="cls-2" d="M1.69,6v.08c.14.1.66.6.68.77A.34.34,0,0,1,2.2,7l-.15-.13v0a.09.09,0,0,1,0,.15S2,7,1.9,7a1.16,1.16,0,0,0-.38-.35c0,.07-.09.14-.07.17.16.3.8.72.81,1A.27.27,0,0,1,2.09,8a9,9,0,0,1-.83-.92l-.11.06v0h0c.07.11.61.51.36.62,0,0-.05,0-.11,0a2.63,2.63,0,0,0-.55-.51v0c-.26.17-.28.47-.37.81a.89.89,0,0,0,0,.43c.09.15.38.07.45.24s-.13.71.24.77c.15-.21.67-.32.77-.52a.45.45,0,0,1-.22-.38.21.21,0,0,1,.17-.06A.34.34,0,0,0,2,8.66c-.07-.09-.54-.43-.28-.53a.19.19,0,0,1,.09,0,.75.75,0,0,0,.25.22,2.59,2.59,0,0,1,.86-1.07v0c-.19,0-.29-.22-.39-.34l-.28-.26A2.62,2.62,0,0,0,1.69,6Z" transform="translate(0 0.04)"/><path class="cls-2" d="M53.24,6c-.09.06-.26,0-.38,0a5,5,0,0,0-.69.2,3.65,3.65,0,0,0-1.92,2.26c-.11.34-.13.7-.21,1.07a4.93,4.93,0,0,0,.08,1.73c.06.25.06.44.13.67a4.47,4.47,0,0,0,2,2.63,2.78,2.78,0,0,0,1.7.4h.32a3.15,3.15,0,0,0,2.59-2.2,8.15,8.15,0,0,0,.27-1.2c0-.19,0-.38,0-.57a3.2,3.2,0,0,0-.06-1.24C57,9.52,57,9.27,56.93,9a4.24,4.24,0,0,0-2.24-2.76A3.93,3.93,0,0,0,53.24,6Z" transform="translate(0 0.04)"/><path class="cls-2" d="M15.54,6.24a2,2,0,0,1-.15.45h0l0,0C15.49,6.55,15.58,6.33,15.54,6.24Z" transform="translate(0 0.04)"/><path class="cls-2" d="M89.75,10.26c1.27,0,2.4,0,2.92-.72A2.11,2.11,0,0,0,93,8.81a2.42,2.42,0,0,0-.1-1.22c-.43-1.15-1.54-1.33-3.12-1.32v0h0Z" transform="translate(0 0.04)"/><path class="cls-2" d="M1.62,6.39l.07.07S1.63,6.41,1.62,6.39Z" transform="translate(0 0.04)"/><path class="cls-2" d="M19.82,10.09a2.81,2.81,0,0,0,.67-.25c.35-.16.7-.24,1.06-.39a1.72,1.72,0,0,1,.64-.21.23.23,0,0,1,0,.11s0,.06,0,.1c-.58.25-1.22.48-1.81.73-.22.09-.56.06-.55.38a.32.32,0,0,0,0,.18,20.6,20.6,0,0,1,2.37-.09.23.23,0,0,1,0,.11c.11.2-.36.11-.52.15s-.39,0-.57,0-.41,0-.6,0a4.1,4.1,0,0,1-.79,0,2.49,2.49,0,0,1-.08.32h.49c.11.07.34,0,.49,0,.41.09,1,0,1.36.09.09.19-.09.29-.36.23s-.41,0-.6,0-.38,0-.55,0a5.77,5.77,0,0,0-1,0c-.08.21-.36.21-.53.34.62,0,1.25-.19,1.92-.19h1a1.79,1.79,0,0,0,.64.08,2.47,2.47,0,0,0,.06-1.6c-.06-.3,0-.62-.1-.9s0-.59-.11-.79-.23-.15-.38-.23a3.64,3.64,0,0,1-.64-.6c-.19-.25-.48-.88-1-.75s-.81.71-1.17,1.07a.47.47,0,0,1-.26-.07c0,.22-.25.25-.32.43.15.05.37.31.47.28s.3-.24.54-.26a.44.44,0,0,0,.08.11s0,0,0,0c-.06.19-.3.17-.38.32a1,1,0,0,1,.3.3h0v0c.18-.12.3-.35.57-.36a.27.27,0,0,1,.07.17c-.17.15-.38.28-.54.45.07.07.07.22.13.3a2,2,0,0,1,.81-.45.22.22,0,0,1,.05.21,6.83,6.83,0,0,1-.82.49Z" transform="translate(0 0.04)"/><path class="cls-2" d="M13.21,10.69a2.78,2.78,0,0,1,.11-.6c.06-.26.07-.53.12-.77l.05-.4c.12-.48.16-1,.28-1.52a.25.25,0,0,1,.17,0c.11.2,0,.61-.07.85s-.07.52-.1.77a11.51,11.51,0,0,0-.24,1.35h0v0c.1-.12.06-.29.28-.3l.08.1a2.44,2.44,0,0,1-.25.62h.13l.06,0A2.3,2.3,0,0,1,14,10.2c.14-.33.22-.67.34-1s0-.45.3-.45a.28.28,0,0,1,.07.19,4.57,4.57,0,0,0-.32.88h0v0c.12-.16.14-.45.3-.56s.08,0,.1,0c-.18-.15,0-.62,0-.88a.49.49,0,0,1-.19,0,.36.36,0,0,1-.13.34l-.1,0s0,0,0-.09h0c0,.11,0,.16-.08.19a.24.24,0,0,1-.11,0,.45.45,0,0,1-.06-.3c0-.09,0-.23,0-.35.08-.34,0-.89.24-1.11a1.33,1.33,0,0,0-1.35.66l-.15.11a2.14,2.14,0,0,0-.17,1.18A8.07,8.07,0,0,1,13,10.67h0S13.14,10.69,13.21,10.69Z" transform="translate(0 0.04)"/><path class="cls-2" d="M14.47,7c.08.08.09.13.08.3a3.27,3.27,0,0,0-.08.81,2.66,2.66,0,0,1,.19-1c.08,0,.12,0,.17,0A1.58,1.58,0,0,0,14.47,7Z" transform="translate(0 0.04)"/><path class="cls-2" d="M15.69,7.1s0,0,0,.09a5.27,5.27,0,0,0-.21,1h0c0-.22.12-.8.34-.81,0,0,0,0,.07.08s0,.21,0,.28a6.3,6.3,0,0,0-.19.81h0v0a1.53,1.53,0,0,0,.13-.32,5.53,5.53,0,0,0,.34-.79C16,7.32,15.86,7.17,15.69,7.1Z" transform="translate(0 0.04)"/><path class="cls-2" d="M12.42,9.67h-.11a6.49,6.49,0,0,1-.42-1.82c-.18-.07-.33-.23-.51-.3a2.72,2.72,0,0,0-1.67,0,3,3,0,0,0,.28.6c.16.37.3.72.47,1.09a1.9,1.9,0,0,1,.25.6c-.06.06-.05.08-.19.08-.29-.49-.5-1.08-.77-1.6-.08-.15-.13-.49-.27-.58l0,.17a2.26,2.26,0,0,1,.28.56c.13.25.25.51.39.77a1.21,1.21,0,0,1,.21.53.25.25,0,0,1-.17.07c-.19-.31-.34-.65-.51-1a2.23,2.23,0,0,1-.26-.51h0v0a.57.57,0,0,1-.49.2,1.58,1.58,0,0,0-.45-.33,4.93,4.93,0,0,0-.75.6c-.13.18-.3.32-.42.5a1.82,1.82,0,0,1-.15.23v0c.5.13.85.77,1.28,1-.09-.15-.82-.79-.39-.86a11,11,0,0,1,.77.92c.1.13.24.18.26.39,0,0,0,0,0,0a.19.19,0,0,0-.09,0c-.11,0-.18-.14-.23-.15s-.12.16-.28.18-.18-.06-.26-.11l-.32-.24c-.29-.22-.59-.78-1-.79-.12.15-.32.23-.43.39a2.41,2.41,0,0,0-.17.79,2.14,2.14,0,0,1,.43.21l1,.49c.14.08.41.13.47.28a.1.1,0,0,1-.07.15c-.09.06-.43-.16-.53-.21S7,12,6.74,11.83a2.19,2.19,0,0,0-.68-.35s0,.06,0,.09,0,0,0,0a.89.89,0,0,0,.26.11l.72.34c.12,0,.25,0,.3.17s-.05.16-.15.17a2.2,2.2,0,0,0-.47-.19A5.23,5.23,0,0,0,6,11.89v0c.06.07,0,.32,0,.47a1.5,1.5,0,0,0,.43.58H8a3,3,0,0,1,.81-1.05s.39-.25.32-.28S9,11.48,9,11.29s.06-.08.17-.08.12.15.2.19.05-.07,0-.09c-.07-.18-.28-.3-.39-.45-.25-.34-.55-.64-.81-1-.13-.18-.43-.35-.49-.6,0-.07,0-.14.15-.15a14.4,14.4,0,0,1,1,1.11c.08.1.2.18.28.28s.37.54.53.6c.08-.1.23-.13.28-.26a4.42,4.42,0,0,1-.45-.7c0-.07-.09-.2-.06-.26s0-.06.08-.08.05,0,.11,0c.11.2.2.4.32.59a1.36,1.36,0,0,1,.21.35h0v0l0-.07a2.65,2.65,0,0,1-.3-.58,2.87,2.87,0,0,1-.47-1,.21.21,0,0,1,.17-.06c.21.35.42.74.62,1.11.06.11.12.37.25.4.26-.25.84,0,1.09,0v0c-.09-.08-.1-.22-.17-.33a8,8,0,0,1-.4-.77c-.05-.09-.2-.24-.15-.34s.05-.1.17-.1a2.22,2.22,0,0,1,.3.55h0V9.54A3.33,3.33,0,0,1,11,8.79l0-.21c0-.08.09-.09.19-.09a5.74,5.74,0,0,1,.34.88,1.1,1.1,0,0,0,.11.32A3.4,3.4,0,0,1,11.52,9l.18,0,0,0c.11.16,0,.46.1.69A8.07,8.07,0,0,1,12,11h0v0c.08-.08.13-.2.25-.26l.22,0v-.13Z" transform="translate(0 0.04)"/><path class="cls-2" d="M16.35,7.51c-.32.75-.61,1.5-.94,2.26-.13.3-.25.61-.39.92a1.34,1.34,0,0,0-.12.3h0v0h0v0a3.7,3.7,0,0,0,.36-.81c.21-.47.48-1,.69-1.43.08-.19.29-.85.44-.9.31-.18.07.38.05.45-.22.48-.45,1-.69,1.45h0v0a2.48,2.48,0,0,0,.24-.49l.53-1c.07,0,.07,0,.11,0s.09.06.11.15L16,10.07h0v0a3,3,0,0,0,.3-.56,4.94,4.94,0,0,0,.3-.49c.08-.16.12-.39.34-.4l.09.1a2.74,2.74,0,0,1-.43.79c-.12.2-.18.4-.3.6-.22.37-.45.75-.64,1.14h0v0a3.3,3.3,0,0,0,.32-.55l.75-1.2a4.59,4.59,0,0,1,.49-.77c.12,0,.09.08.15.11s.13,0,.15,0a.3.3,0,0,1,0,.15c-.08.08-.1.2-.17.3s-.27.4-.38.62h0v0c.18-.19.46-.87.75-.88,0,0,0,0,.06,0s.11-.21.28-.23.08.06.08.19a5.46,5.46,0,0,0-.47.68c-.3.44-.62.88-.93,1.33a4.67,4.67,0,0,0-.65.92h.05a6.7,6.7,0,0,1,.45-.6c.33-.47.67-.93,1-1.39.12-.18.34-.65.6-.66a.24.24,0,0,1,.06.17l-.9,1.24h0v0a1.21,1.21,0,0,0,.21-.28c.15-.2.34-.38.49-.58s.15-.33.38-.34l.05,0v0a.31.31,0,0,1,0,.11l-1.22,1.54h0v0a2.53,2.53,0,0,0,.45-.53c.15-.21.38-.38.53-.58s.27-.48.52-.49c.05.05.07.05.08.17l-1.56,1.82h0v0a1.78,1.78,0,0,0,.29-.32c.28-.29.57-.57.86-.85s.23-.4.51-.41a.34.34,0,0,1,.06.15,5.72,5.72,0,0,0-.66.73c-.13.17-.34.28-.47.47h0a1.73,1.73,0,0,1,.49-.41c.08,0,.14,0,.15.15a5,5,0,0,0-.47.45h0a.72.72,0,0,1,.44-.23l0,0c.05.1,0,.14,0,.23h0c.17-.13.39-.12.49-.34a3,3,0,0,0,.1-.43,1.25,1.25,0,0,0,0-.51c0-.26,0-.46-.12-.64-.32-.54-1-.75-1.52-1.11S17.3,7.57,16.35,7.51Z" transform="translate(0 0.04)"/><path class="cls-2" d="M3.22,7.61c0,.15.23.28.35.37.42.31.75.78,1.19,1.07a2.07,2.07,0,0,0-.51-.47C3.88,8.3,3.61,7.87,3.22,7.61Z" transform="translate(0 0.04)"/><path class="cls-2" d="M.69,11.14v.13a2.76,2.76,0,0,0,.85.13.44.44,0,0,0,.08.11s0,0,0,0,0,.1-.15.1-.67-.08-.81-.1c0,.43,0,.89,0,1.26a4,4,0,0,1,.61,0c.1.44-.3.11-.53.26a3,3,0,0,1,.53,0c0,.07.05.08,0,.13s-.24.11-.43.1v.05a3.89,3.89,0,0,0,.4.1.24.24,0,0,1,0,.09s-.06.14-.05.15a1.06,1.06,0,0,0,.41.21,3.65,3.65,0,0,0,2.6-.28l.62-.19.83-.15c.13,0,.26,0,.34,0a1.19,1.19,0,0,1-.42-.47c-.06-.1,0-.2-.15-.24s-.27,0-.41-.06a2.34,2.34,0,0,1-1-.41s0,0,0,0,.05-.09.15-.11a3.81,3.81,0,0,0,1.26.35v-.05a.57.57,0,0,1,0-.3,3.22,3.22,0,0,1-.86-.34c-.6-.26-1.22-.47-1.81-.73C2.6,10.79,2,10.7,2,10.44c0,0,0,0,0,0s.06,0,.09,0a7.47,7.47,0,0,1,1.21.49c.72.31,1.46.53,2.16.86-.12-.14-.4-.18-.58-.26l-1.32-.6c-.17-.07-.54-.13-.62-.3s0-.09,0-.15.06,0,.08,0a5.76,5.76,0,0,1,.62.26c-.23-.21-.6-.26-.83-.47,0-.07,0-.1.09-.13s.37.12.47.17l1.26.6a2.81,2.81,0,0,0-.52-.26L3.1,10c-.17-.09-.49-.14-.52-.37,0,0,0,0,.09-.06s.67.28.79.34c.75.4,1.52.76,2.28,1.13,0-.11,0-.23,0-.34a3.55,3.55,0,0,1-.46-.41v-.12a.26.26,0,0,1,.14-.07,1.21,1.21,0,0,0,.41.3c0-.19.2-.25.26-.4l-.2-.18c0,.13,0,.16-.19.15a3.07,3.07,0,0,0-.38-.34c0,.08,0,.12-.09.15s0,0-.06,0a8.6,8.6,0,0,0-1-.83c-.24-.18-.43-.45-.69-.62v0h0A1.52,1.52,0,0,0,4,8.7c.13.1.23.27.36.37s.36.19.37.45a.34.34,0,0,1-.15.06,6.88,6.88,0,0,0-.77-.66c-.14-.11-.25-.28-.38-.39A2.2,2.2,0,0,1,2.84,8h0v0s-.08.07-.07.11l.37.38c0,.12,0,.12-.07.2A1.54,1.54,0,0,1,3.42,9l.74.49c.13.09.37.15.43.3s0,.09,0,.15a.42.42,0,0,1-.17,0,3.87,3.87,0,0,0-.34-.21l-1-.64a2.69,2.69,0,0,0-.6-.39v0c.09.14,0,.52-.11.62s-.44.26-.64.38l-.51.36c-.1.08-.15.21-.26.28v0H1c.1.1.34.1.4.24s0,.14,0,.17.12.06.13.19l-.07.09c.16,0,.26.05.26.21s-.05.05-.13.07A7.6,7.6,0,0,1,.69,11.14Z" transform="translate(0 0.04)"/><path class="cls-2" d="M14.43,8.1a.24.24,0,0,0,0,.13A.25.25,0,0,0,14.43,8.1Z" transform="translate(0 0.04)"/><path class="cls-2" d="M3.4,8.19s.12.13.12.13S3.41,8.2,3.4,8.19Z" transform="translate(0 0.04)"/><path class="cls-2" d="M14.41,8.34v0h0Z" transform="translate(0 0.04)"/><path class="cls-2" d="M2.56,8.38v0c.06,0,.08,0,.13.06A.24.24,0,0,0,2.56,8.38Z" transform="translate(0 0.04)"/><path class="cls-2" d="M15.32,8.66c0,.2,0,.53-.17.6a.21.21,0,0,1-.25,0v0c.1.12-.16.52-.22.64h0v0c.09-.1.07-.19.26-.19A.24.24,0,0,1,15,9.9c-.23.24-.29.65-.53.88,0,0,0,0,0,0a.22.22,0,0,0,.15,0l.9-2.16C15.43,8.73,15.42,8.7,15.32,8.66Z" transform="translate(0 0.04)"/><path class="cls-3" d="M17,9.88l0,0S17,9.88,17,9.88Z" transform="translate(0 0.04)"/><path class="cls-3" d="M17.39,10.67l0,.07S17.45,10.68,17.39,10.67Z" transform="translate(0 0.04)"/><path class="cls-2" d="M.77,10.82l0,.06a1,1,0,0,1,.32.09A.94.94,0,0,0,.77,10.82Z" transform="translate(0 0.04)"/><path class="cls-2" d="M11.87,13.24h-.13a3.53,3.53,0,0,1-.17-.49h0c0,.1-.05.11-.17.1l-.05,0L10.67,11a3.41,3.41,0,0,0-1,.83c0,.17.2.28.29.41l.64.9c.12.16.31.28.35.51l0,0a.34.34,0,0,1-.17.05c-.12-.19-.29-.36-.42-.54a1.28,1.28,0,0,0-.24-.32v0c.29.24.4.69.66.94a.54.54,0,0,1,0,.15c-.06,0-.08,0-.13,0s-.2-.26-.29-.39l-.71-1c-.09-.13-.16-.36-.3-.43s0,0,0,.08a1.83,1.83,0,0,0,.32.45c.11.16.19.32.3.47s.18.16.19.35a.39.39,0,0,0-.1.08s0,0,0,0c-.19-.07-.23-.33-.38-.45v0a1.9,1.9,0,0,1,.23.39,2.07,2.07,0,0,1,.49.94.34.34,0,0,1-.17.06c-.15-.25-.33-.51-.47-.79h0c0,.11-.06.07-.1.13s.08.11-.07.17,0,0-.08,0A1.39,1.39,0,0,0,9,13.77c0,.08,0,.08-.07.11s0,0-.1,0a.48.48,0,0,0-.11-.09v0s0,0,0,.06a1.81,1.81,0,0,0,.56.26,5.65,5.65,0,0,1,.85.43c.41.25.81.51,1.19.79.15.1.27.26.41.36a2.79,2.79,0,0,1,.55.47c0,.07.06.17.11.24a5.6,5.6,0,0,0-.23-1.37H12a2.47,2.47,0,0,1-.19-.94c.08,0,.13,0,.15-.09A1.82,1.82,0,0,1,11.87,13.24Z" transform="translate(0 0.04)"/><path class="cls-2" d="M11,11l.55,1.56v-.06a2.65,2.65,0,0,1-.15-.54c-.09-.29-.2-.62-.27-.94h0v0Z" transform="translate(0 0.04)"/><path class="cls-2" d="M11.4,11.14a7.88,7.88,0,0,0,.34,1.2c0,.17,0,.41.15.53L12,11.33h0C11.73,11.49,11.54,11.19,11.4,11.14Z" transform="translate(0 0.04)"/><path class="cls-2" d="M12.55,11.16s0,0-.07.07c-.13.21,0,.61-.06.9,0,.12,0,.33,0,.49a5.58,5.58,0,0,0,.34,2.63c.06.19.11.91.19,1v0c.07-.1,0-.39,0-.51a5.64,5.64,0,0,1-.19-1.35c.06,0,.07-.06.17-.06l.09.1c0,.13,0,.25,0,.35,0-.63,0-1.26,0-1.89a.24.24,0,0,1,.17-.06l0,0,0,.07c.07.11,0,.43,0,.59l0,.82a3.55,3.55,0,0,0,0,.74c0,.13,0,.3,0,.39,0-1,.11-2,.15-3a.21.21,0,0,1,.17-.06s0,0,.06.08c.13.21-.15,1.1,0,1.31l.06-.47a.48.48,0,0,0,.11-.09l0,0c.1,0,.11.07.11.2s0,.18,0,.27a3,3,0,0,0-.13.84,2.24,2.24,0,0,1,.38-.84l.07,0s.06,0,.08.13-.23.59-.27.77h0v0a8.63,8.63,0,0,1,1.45-1.15A6.42,6.42,0,0,1,16.2,13c.09,0,.19,0,.25-.1a6.12,6.12,0,0,1-.4-.49,5.18,5.18,0,0,0-1.56-1.12A8.15,8.15,0,0,0,12.55,11.16Z" transform="translate(0 0.04)"/><path class="cls-2" d="M18.67,12c-.15.11-.41.1-.59.17l-1,.36v0h.07a3.49,3.49,0,0,1,1-.17c0,.07,0,.09.11.11v0a.18.18,0,0,1,0-.11s.05-.09.08-.11S18.77,12.14,18.67,12Z" transform="translate(0 0.04)"/><path class="cls-2" d="M20.76,12.21c-.18.11-.85,0-1,.11a8.55,8.55,0,0,1,1.79.1c.24.06.52.07.58-.15h0v0C21.68,12.24,21.21,12.21,20.76,12.21Z" transform="translate(0 0.04)"/><path class="cls-2" d="M18.69,12.38s0,0,.07,0Z" transform="translate(0 0.04)"/><path class="cls-2" d="M8.81,12.6a2.89,2.89,0,0,0,.6.87A3.52,3.52,0,0,0,8.81,12.6Z" transform="translate(0 0.04)"/><path class="cls-2" d="M8.47,13.09c0,.05,0,.05,0,.08s0,0,0,.05a1.25,1.25,0,0,0,.41.34A1.78,1.78,0,0,0,8.47,13.09Z" transform="translate(0 0.04)"/><path class="cls-2" d="M7.9,13.45a.5.5,0,0,0-.19,0,.53.53,0,0,1,.19,0Z" transform="translate(0 0.04)"/><path class="cls-1" d="M11,14.22h.13c.06.1.17.17.23.26l.6.79c.12.16.33.28.36.51-.06.06-.05.09-.19.09l0,0a3.79,3.79,0,0,0-.34-.43l-.51-.69c-.11-.13-.27-.21-.3-.42Z" transform="translate(0 0.04)"/><path class="cls-2" d="M12.44,16.59a4.76,4.76,0,0,1,.07.56c0,.12-.06.26,0,.34a3.12,3.12,0,0,1,.21-.77C12.54,16.73,12.53,16.68,12.44,16.59Z" transform="translate(0 0.04)"/><path class="cls-1" d="M52.13,21.53H50.91v-.12l.39-.05a2.77,2.77,0,0,0-.26-.64L51,20.53H50c-.08.31-.3.53-.35.85a.71.71,0,0,1,.37.05.15.15,0,0,1,0,.1H49v-.12l.41-.05a3.19,3.19,0,0,1,.3-.68c.2-.46.38-.91.57-1.35.09-.19.15-.64.41-.64.25.68.53,1.37.81,2,.07.17.14.63.34.64s.22,0,.28.07A.15.15,0,0,1,52.13,21.53Z" transform="translate(0 0.04)"/><path class="cls-1" d="M64.93,18.69a1.5,1.5,0,0,1,1.54.88,1.52,1.52,0,0,1-.83,2H64.46a1.49,1.49,0,0,1-.85-1.94,1.53,1.53,0,0,1,.81-.79C64.55,18.74,64.82,18.76,64.93,18.69Z" transform="translate(0 0.04)"/><path class="cls-1" d="M80.74,21.53H79.53v-.12l.38-.05a2.37,2.37,0,0,0-.25-.64l-.07-.19h-1c-.07.31-.29.53-.34.85.13,0,.29,0,.36.05a.15.15,0,0,1,0,.1h-1v-.12l.4-.05a4.66,4.66,0,0,1,.3-.68l.58-1.35c.08-.19.14-.64.4-.64.26.68.53,1.37.81,2,.08.17.15.63.35.64s.21,0,.27.07A.15.15,0,0,1,80.74,21.53Z" transform="translate(0 0.04)"/><path class="cls-1" d="M89.62,18.8v.68h-.21v0h0A2.5,2.5,0,0,0,89.3,19h0a.71.71,0,0,0-.9.19c-.14.2,0,.47.15.56.42.3,1.13.31,1.28.87a.79.79,0,0,1-.55.94h-.32a7.53,7.53,0,0,1-1,0v-.68h.21v0h0c0,.13,0,.44.13.49.36.27,1.27-.06,1-.6s-1.17-.46-1.4-1a.68.68,0,0,1,.06-.58C88.37,18.57,88.91,18.7,89.62,18.8Z" transform="translate(0 0.04)"/><path class="cls-1" d="M38.11,18.75h1.24a.61.61,0,0,1,0,.15.66.66,0,0,1-.26,0,.53.53,0,0,1-.19,0v2.41H40c0-.16.06-.32.08-.49h.22a2.86,2.86,0,0,1,0,.66h-2.2v-.12l.41-.05V19l-.39,0A.82.82,0,0,1,38.11,18.75Z" transform="translate(0 0.04)"/><path class="cls-1" d="M40.93,18.75h1.24v.15h0v0a.77.77,0,0,0-.38,0h0v2.39l.43.05v.12H40.93v-.12l.4-.05V19l-.4,0Z" transform="translate(0 0.04)"/><path class="cls-1" d="M42.87,18.75a5.31,5.31,0,0,1,1.88.13c.57.36.25.92-.22,1.14v0a.74.74,0,0,1,.43,1.3,4.29,4.29,0,0,1-2.09.19v-.12l.4-.05V19l-.4,0Z" transform="translate(0 0.04)"/><path class="cls-1" d="M45.9,18.75a4.9,4.9,0,0,1,1.88.13.72.72,0,0,1,.27,1,1.16,1.16,0,0,1-.57.34c.07.08.19.12.25.21a5.86,5.86,0,0,1,.54.94l.38.05v.12h-.79a2.06,2.06,0,0,0-.21-.42c-.2-.39-.33-.85-.92-.86a4.54,4.54,0,0,0,0,1.11l.47.05v.12H45.9v-.12l.41-.05V19l-.41,0Z" transform="translate(0 0.04)"/><path class="cls-1" d="M52.68,18.75a4.9,4.9,0,0,1,1.88.13.72.72,0,0,1,.28,1,1.24,1.24,0,0,1-.58.34c.08.08.19.12.26.21a6.67,6.67,0,0,1,.53.94l.39.05v.12h-.79a2.1,2.1,0,0,0-.22-.42c-.2-.39-.33-.85-.91-.86a3.73,3.73,0,0,0,0,1.11l.47.05v.12H52.68v-.12l.41-.05V19l-.41,0Z" transform="translate(0 0.04)"/><path class="cls-1" d="M55.82,18.75H57a.61.61,0,0,1,0,.15h0v0c-.13,0-.3,0-.34.06a1.42,1.42,0,0,1,.21.36c.16.27.35.53.49.82,0,0,0,0,0-.05a3.34,3.34,0,0,0,.41-.66,2.43,2.43,0,0,0,.32-.51H58a.43.43,0,0,0-.23,0v-.18h1v.18l-.37,0c-.2.35-.42.7-.64,1a4,4,0,0,0-.25.37v1l.42.05v.12H56.7v-.12l.4-.05v-1c0-.06-.1-.12-.13-.17l-.4-.67c-.12-.19-.21-.57-.51-.57-.05,0-.17,0-.22-.05A.3.3,0,0,1,55.82,18.75Z" transform="translate(0 0.04)"/><path class="cls-1" d="M60.79,18.75h2.12a3.29,3.29,0,0,1,0,.71h-.22l0,0L62.63,19h-1v1.11h.62a1,1,0,0,1,.07-.36.22.22,0,0,1,.12,0l.05,0v.89a.54.54,0,0,1-.19,0c0-.12,0-.25-.05-.37H61.6v1.09l.43.05v.12H60.79v-.12l.41-.05V19l-.41,0Z" transform="translate(0 0.04)"/><path class="cls-1" d="M67.26,18.75a4.9,4.9,0,0,1,1.88.13.72.72,0,0,1,.27,1,1.16,1.16,0,0,1-.57.34c.07.08.19.12.25.21a5.86,5.86,0,0,1,.54.94l.38.05v.12h-.79a2.06,2.06,0,0,0-.21-.42c-.2-.39-.33-.85-.92-.86a4.54,4.54,0,0,0,0,1.11l.47.05v.12H67.26v-.12l.4-.05V19l-.4,0Z" transform="translate(0 0.04)"/><path class="cls-1" d="M72,18.75c.85,0,2-.12,2.27.43a.82.82,0,0,1,.06.37c0,.57-.5.73-1,.83-.18,0-.35-.06-.54-.06v1l.47.05v.12H72v-.12l.41-.05V19l-.41,0Z" transform="translate(0 0.04)"/><path class="cls-1" d="M75,18.75H76.2a.61.61,0,0,1,0,.15.66.66,0,0,1-.26,0,.5.5,0,0,1-.19,0v2.41h1.07c0-.16.06-.32.08-.49h.22a2.86,2.86,0,0,1,0,.66H75v-.12l.41-.05V19l-.39,0A.82.82,0,0,1,75,18.75Z" transform="translate(0 0.04)"/><path class="cls-1" d="M81.21,18.75h.84a2,2,0,0,0,.32.39c.27.37.56.7.83,1.07.13.18.39.35.47.58h0V19l-.34,0a.59.59,0,0,1,0-.2h1a.82.82,0,0,1,0,.18h0a.88.88,0,0,1-.34,0v2.56h-.19c-.08-.23-.43-.5-.57-.7-.27-.36-.58-.68-.84-1a2.17,2.17,0,0,0-.45-.55v2.09a.86.86,0,0,0,.24,0,.24.24,0,0,0,.13,0v.15h-1v-.15l.36,0a3.23,3.23,0,0,0,0-.77V19l-.43,0Z" transform="translate(0 0.04)"/><path class="cls-1" d="M84.8,18.75h2.52v.71H87.1v0A1.09,1.09,0,0,1,87,19h-.77v2.39l.47.05v.12H85.4v-.12l.46-.05V19H85.1l-.09.49H84.8Z" transform="translate(0 0.04)"/><path class="cls-2" d="M64.78,18.9l-.34.13a1.18,1.18,0,0,0-.42.58c-.32.88.39,2.05,1.34,1.8A1.34,1.34,0,0,0,66,19.57,1.12,1.12,0,0,0,64.78,18.9Z" transform="translate(0 0.04)"/><path class="cls-2" d="M43.68,19v1c.38,0,.78,0,.88-.27a.48.48,0,0,0,0-.45C44.48,19,44.07,19,43.68,19Z" transform="translate(0 0.04)"/><path class="cls-2" d="M46.71,19v1.09a1.94,1.94,0,0,0,.43,0c.2-.12.42,0,.51-.3a.49.49,0,0,0,0-.47C47.49,19,47.2,19,46.71,19Z" transform="translate(0 0.04)"/><path class="cls-2" d="M53.5,19v1.09a1.85,1.85,0,0,0,.42,0c.2-.12.42,0,.51-.3a.47.47,0,0,0,0-.47C54.28,19,54,19,53.5,19Z" transform="translate(0 0.04)"/><path class="cls-2" d="M68.07,19v1.09a1.94,1.94,0,0,0,.43,0c.2-.12.42,0,.51-.3a.49.49,0,0,0,0-.47C68.85,19,68.55,19,68.07,19Z" transform="translate(0 0.04)"/><path class="cls-2" d="M72.78,19v1.17a1.62,1.62,0,0,0,.5,0c.18-.12.37-.09.49-.26a.77.77,0,0,0,.06-.24C74,19,73.37,19,72.78,19Z" transform="translate(0 0.04)"/><path class="cls-2" d="M50.49,19.31l-.43,1h.85v0C50.71,20.08,50.7,19.53,50.49,19.31Z" transform="translate(0 0.04)"/><path class="cls-2" d="M79.1,19.31l-.43,1h.86v0C79.32,20.08,79.32,19.53,79.1,19.31Z" transform="translate(0 0.04)"/><path class="cls-2" d="M43.68,20.14v1.22c.48,0,.93,0,1.07-.34a.81.81,0,0,0,0-.38C44.62,20.2,44.25,20.13,43.68,20.14Z" transform="translate(0 0.04)"/></svg>