<?xml version="1.0" encoding="utf-8"?>
<!-- Svg Vector Icons : http://www.sfont.cn -->
<!DOCTYPE svg PUBLIC "-//W3C//DTD SVG 1.1//EN" "http://www.w3.org/Graphics/SVG/1.1/DTD/svg11.dtd">
<svg version="1.1" xmlns="http://www.w3.org/2000/svg" xmlns:xlink="http://www.w3.org/1999/xlink" x="0px" y="0px" viewBox="0 0 1000 1000" enable-background="new 0 0 1000 1000" xml:space="preserve">
<metadata> Svg Vector Icons : http://www.sfont.cn </metadata>
<g><path d="M111.1,629.3v-4.4c2.5-29.4,15.6-53.6,36.8-73.4c19.6-18.3,43-28.9,70.1-32c18.8-2.1,36.6,0.9,54.2,6.6c11.8,3.8,21.3,11.5,31,18.5c26.7,19.3,52.1,40.3,80.1,57.8c26.9,16.8,55.2,30.5,87.2,34.2c22,2.5,44,1.1,65.8-2.7c55.9-9.9,104.4-34.8,145.9-73.3c23.4-21.8,50.6-35.4,82.6-36.2c39-1,71.8,13.5,97.4,43.4c10.9,12.7,18.5,27.1,23.4,43.1c2.2,7,1.5,14.3,3.3,21.3c0,117.2,0,234.4,0.1,351.6c0,4.6-0.4,6.2-5.8,6.1c-255.5-0.2-511-0.2-766.5,0c-5.3,0-5.8-1.5-5.8-6.1c0.1-115.3,0.1-230.6,0.1-345.8C112.3,635.1,112.3,632.2,111.1,629.3L111.1,629.3z M522.5,10c10.3,1.9,20.6,3.6,30.8,5.7c103,21,184.4,107.7,199.1,212.1c19.1,135.1-66.4,258-199.9,287.5c-135.1,29.9-273.9-59.9-302-195.3C221.8,181.3,305.2,49.4,442.5,16.6c8.9-2.1,18.1-3.3,27.1-4.9c1.3-0.2,3,0.3,3.5-1.7h5.8c0.8,0.9,1.9,0.7,2.9,0.8c1,0,2.1,0.1,2.9-0.8h27.6c1.2,1.2,2.7,0.6,4.1,0.8c1.1-0.1,2.3,0.2,3.2-0.8C520.6,10,521.6,10,522.5,10L522.5,10z M111.1,629.3c2.5,2.9,2,5.8,0,8.7V629.3L111.1,629.3z M516.8,11.3c-1.7,0.2-3.3,0.5-4.4-1.3h4.4c0.4,0.3,0.6,0.5,0.5,0.8C517.1,11.1,516.9,11.3,516.8,11.3L516.8,11.3z M481.7,11.2c-1.2,0.2-2.5,0.6-2.8-1.2h2.9c0.5,0.3,0.6,0.6,0.5,0.8C482.1,11.1,481.9,11.2,481.7,11.2L481.7,11.2z M481.7,11.2c0-0.4,0.1-0.8,0.1-1.2h2.9C484.2,11.5,483,11.5,481.7,11.2L481.7,11.2z M516.8,11.3c-0.1-0.4-0.1-0.8-0.1-1.3h2.9C519.3,11.7,518,11.4,516.8,11.3L516.8,11.3z"/></g>
</svg>