<?xml version="1.0" encoding="utf-8"?>
<!-- Svg Vector Icons : http://www.sfont.cn -->
<!DOCTYPE svg PUBLIC "-//W3C//DTD SVG 1.1//EN" "http://www.w3.org/Graphics/SVG/1.1/DTD/svg11.dtd">
<svg version="1.1" xmlns="http://www.w3.org/2000/svg" xmlns:xlink="http://www.w3.org/1999/xlink" x="0px" y="0px" viewBox="0 0 1000 1000" enable-background="new 0 0 1000 1000" xml:space="preserve">
<metadata> Svg Vector Icons : http://www.sfont.cn </metadata>
<g><g transform="translate(0.000000,511.000000) scale(0.100000,-0.100000)"><path d="M7438.8,5009.9c-43.4-16-394.9-187.2-780.6-381.2l-700.7-351.5l141.5-114.1c77.6-63.9,374.4-303.6,659.7-531.8l518.1-415.4l698.5,4.6l698.5,6.8l-410.9,821.7c-226,451.9-424.6,837.7-440.5,858.3C7735.5,5012.2,7566.6,5057.8,7438.8,5009.9z"/><path d="M4651.8,4656.1c-121-38.8-164.3-84.5-703-755.5l-552.4-684.8h1627.5l1627.5,2.3l-70.8,61.6c-143.8,130.1-1634.3,1317-1682.3,1342.2C4823,4660.7,4718,4674.4,4651.8,4656.1z"/><path d="M346.8,4288.6c-100.4-32-207.7-146.1-235.1-253.4c-50.2-180.3,66.2-381.2,246.5-431.4c45.6-11.4,255.6-22.8,463.4-22.8c483.9,0,547.8-18.3,751-226c107.3-109.6,175.8-207.7,246.5-353.8c54.8-109.6,401.7-1061.4,769.2-2111.4c367.5-1050,707.6-2013.2,753.3-2138.8c303.6-810.3,630-1200.6,1113.9-1323.9c155.2-41.1,296.7-43.4,2332.8-43.4h2168.4l79.9,50.2c107.3,66.2,168.9,175.8,168.9,303.6c0,127.8-61.6,237.4-168.9,303.6l-79.9,50.2l-2179.9,11.4c-2446.9,13.7-2243.8-2.3-2408.1,187.2c-70.8,82.2-285.3,477.1-285.3,525c0,9.1,881.1,20.5,1958.4,22.8c2182.1,9.1,2058.9,0,2387.6,173.5c189.4,98.2,502.2,394.9,641.4,607.2c312.7,481.6,582.1,1193.8,776.1,2056.6c47.9,214.6,59.3,310.4,50.2,438.3c-29.7,401.7-273.9,652.8-689.3,714.4c-100.4,13.7-1333,22.8-3357.6,22.8H2652.2l-25.1,86.7c-41.1,132.4-226,502.2-337.8,668.8c-212.3,319.6-550.1,568.4-881.1,650.5C1234.8,4297.7,456.4,4322.9,346.8,4288.6z M4327.6,1691.1c150.6-107.3,189.5-369.8,79.9-522.7c-107.3-150.6-369.8-189.4-522.7-79.9c-210,148.4-182.6,513.6,43.4,630C4033.2,1770.9,4234.1,1757.3,4327.6,1691.1z M5788.5,1691.1c150.6-107.3,189.5-369.8,79.9-522.7c-107.3-150.6-369.8-189.4-522.7-79.9c-210,148.4-182.6,513.6,43.4,630C5494,1770.9,5694.9,1757.3,5788.5,1691.1z M7249.3,1691.1c150.6-107.3,189.5-369.8,79.9-522.7c-107.3-150.6-369.8-189.4-522.7-79.9c-210,148.4-182.6,513.6,43.4,630C6954.9,1770.9,7155.7,1757.3,7249.3,1691.1z M8710.2,1691.1c150.6-107.3,189.5-369.8,79.9-522.7c-107.3-150.6-369.8-189.4-522.7-79.9c-210,148.4-182.6,513.6,43.4,630C8415.7,1770.9,8616.6,1757.3,8710.2,1691.1z M5058.1,595.4c150.6-107.3,189.5-369.8,79.9-522.7c-107.3-150.6-369.8-189.4-522.7-79.9c-210,148.4-182.6,513.6,43.4,630C4763.6,675.3,4964.5,661.6,5058.1,595.4z M6518.9,595.4c150.6-107.3,189.4-369.8,79.9-522.7C6491.5-77.9,6229-116.8,6076.1-7.2c-210,148.4-182.6,513.6,43.4,630C6224.5,675.3,6425.3,661.6,6518.9,595.4z M7979.8,595.4c150.6-107.3,189.5-369.8,79.9-522.7c-107.3-150.6-369.8-189.4-522.7-79.9c-210,148.4-182.6,513.6,43.4,630C7685.3,675.3,7886.2,661.6,7979.8,595.4z"/><path d="M4453.2-3027c-173.5-38.8-299-109.6-436-244.2c-137-137-203.1-260.2-244.2-454.2c-105-499.9,223.7-977,739.6-1070.5c584.3-105,1136.7,447.4,1031.7,1031.7c-70.8,388-356.1,675.6-739.5,746.4C4642.6-2988.2,4635.8-2988.2,4453.2-3027z"/><path d="M8105.3-3027c-173.5-38.8-299-109.6-436-244.2c-137-137-203.1-260.2-244.2-454.2c-105-499.9,223.7-977,739.5-1070.5c584.3-105,1136.7,447.4,1031.7,1031.7c-70.8,388-356.1,675.6-739.6,746.4C8294.7-2988.2,8287.9-2988.2,8105.3-3027z"/></g></g>
</svg>